<?xml version="1.0" encoding="utf-8"?>
<!-- Generator: Adobe Illustrator 27.5.0, SVG Export Plug-In . SVG Version: 6.00 Build 0)  -->
<svg version="1.1" id="Layer_1" xmlns="http://www.w3.org/2000/svg" xmlns:xlink="http://www.w3.org/1999/xlink" x="0px" y="0px"
	 viewBox="0 0 513.085 277.188" style="enable-background:new 0 0 513.085 277.188;" xml:space="preserve">
<g>
	<g>
		<path style="fill:#AAACAE;" d="M411.68,121.447c0,0-0.196-0.533-0.576-1.568c-0.189-0.517-0.424-1.159-0.704-1.922
			c-0.3-0.751-0.693-1.596-1.112-2.568c-0.848-1.936-2.082-4.209-3.743-6.693c-1.749-2.387-4.041-4.937-7.222-6.721l-0.589-0.355
			c-0.208-0.097-0.426-0.176-0.64-0.267c-0.429-0.179-0.864-0.36-1.304-0.544c-0.427-0.223-0.923-0.265-1.391-0.408
			c-0.477-0.116-0.953-0.256-1.444-0.363c-0.505-0.055-1.015-0.11-1.531-0.165c-0.516-0.057-1.034-0.144-1.578-0.1
			c-1.078,0.044-2.175-0.022-3.31,0.2c-4.526,0.582-9.42,2.337-14.292,4.958c-4.956,2.469-9.81,5.952-14.673,9.933
			c-4.878,3.979-9.633,8.673-14.479,13.723c-1.217,1.253-2.435,2.541-3.658,3.854c-1.229,1.307-2.477,2.624-3.652,3.983
			c-1.191,1.36-2.416,2.699-3.612,4.11c-1.185,1.428-2.38,2.869-3.586,4.322c-2.433,2.922-4.837,5.948-7.48,8.931
			c-2.56,3.032-5.329,5.983-8.299,8.855c-2.979,2.859-6.193,5.613-9.779,8.027c-3.58,2.403-7.564,4.481-11.97,5.687
			c-4.386,1.219-9.209,1.441-13.795,0.4c-4.586-1.042-8.87-3.102-12.637-5.923c-3.77-2.823-6.939-6.392-9.529-10.284
			c-2.597-3.897-4.648-8.11-6.362-12.431c-3.39-8.673-5.567-17.703-7.509-26.818c-1.881-9.115-3.432-18.305-5.386-27.384
			c-1.97-9.064-4.43-18.021-8.05-26.456c-3.677-8.371-8.677-16.2-15.001-22.603c-3.189-3.177-6.743-5.98-10.548-8.377
			c-3.818-2.379-7.876-4.357-12.067-5.954c-8.389-3.177-17.28-4.904-26.111-5.23c-8.853-0.383-17.658,0.529-26.161,2.134
			c-17.03,3.282-32.866,9.513-46.902,17.039c-7.009,3.785-13.63,7.894-19.644,12.32c-6.069,4.325-11.338,9.294-16.148,14.261
			c-1.178,1.269-2.345,2.525-3.498,3.767c-1.088,1.302-2.164,2.591-3.228,3.864c-0.528,0.639-1.069,1.263-1.578,1.906
			c-0.493,0.656-0.985,1.306-1.473,1.954c-0.974,1.297-1.936,2.578-2.886,3.843c-3.607,5.202-6.898,10.24-9.627,15.198
			c-5.57,9.848-9.557,18.918-12.544,26.488c-1.536,3.77-2.694,7.221-3.777,10.193c-0.992,3.006-1.837,5.562-2.492,7.645
			c-1.245,4.186-1.908,6.419-1.908,6.419l-4.501-1.274c0,0,0.675-2.271,1.941-6.529c0.667-2.119,1.526-4.722,2.536-7.781
			c1.103-3.028,2.283-6.541,3.849-10.389c3.045-7.718,7.114-16.981,12.826-27.077c2.797-5.08,6.178-10.261,9.892-15.615
			c0.979-1.303,1.97-2.625,2.974-3.962c0.503-0.668,1.01-1.339,1.519-2.015c0.526-0.663,1.084-1.308,1.629-1.969
			c1.099-1.315,2.211-2.646,3.336-3.99c1.194-1.286,2.401-2.587,3.62-3.901c4.982-5.147,10.453-10.301,16.773-14.81
			c6.227-4.582,12.992-8.776,20.192-12.666c14.401-7.717,30.631-14.117,48.243-17.515c8.797-1.661,17.939-2.611,27.224-2.212
			c9.293,0.345,18.67,2.155,27.59,5.533c4.455,1.697,8.788,3.808,12.883,6.361c4.083,2.57,7.915,5.589,11.361,9.022
			c6.85,6.932,12.112,15.232,15.992,24.051c3.802,8.857,6.329,18.118,8.334,27.333c1.984,9.225,3.537,18.427,5.395,27.424
			c1.904,8.957,4.06,17.831,7.278,26.049c1.624,4.096,3.544,8.018,5.906,11.559c2.356,3.54,5.171,6.685,8.444,9.135
			c3.258,2.447,7.008,4.23,10.837,5.095c3.839,0.868,7.801,0.692,11.557-0.345c3.764-1.028,7.315-2.855,10.591-5.057
			c3.281-2.208,6.306-4.789,9.145-7.516c2.83-2.736,5.519-5.595,8.017-8.558c2.559-2.886,4.964-5.911,7.392-8.827
			c1.22-1.471,2.43-2.929,3.629-4.374c1.217-1.437,2.491-2.831,3.717-4.229c1.225-1.415,2.475-2.733,3.709-4.046
			c1.228-1.318,2.456-2.617,3.694-3.892c4.909-5.114,9.786-9.935,14.87-14.085c5.065-4.148,10.184-7.823,15.493-10.478
			c5.205-2.787,10.559-4.764,15.886-5.453c1.313-0.244,2.661-0.195,3.96-0.233c0.649-0.044,1.3,0.05,1.941,0.119
			c0.641,0.072,1.276,0.144,1.903,0.215c0.62,0.13,1.229,0.299,1.831,0.449c0.595,0.177,1.213,0.258,1.764,0.525
			c0.562,0.233,1.117,0.463,1.665,0.69c0.272,0.117,0.547,0.225,0.811,0.349c0.251,0.148,0.501,0.295,0.748,0.44
			c4.039,2.27,6.759,5.361,8.769,8.107c1.902,2.829,3.258,5.357,4.182,7.456c0.455,1.051,0.881,1.975,1.204,2.784
			c0.299,0.815,0.551,1.499,0.753,2.052c0.405,1.104,0.613,1.675,0.613,1.675L411.68,121.447z"/>
		<path style="fill:#535557;" d="M411.573,121.482c0,0-0.196-0.532-0.574-1.564c-0.189-0.516-0.424-1.158-0.703-1.919
			c-0.3-0.75-0.692-1.593-1.11-2.563c-0.847-1.931-2.078-4.198-3.733-6.674c-1.742-2.38-4.024-4.916-7.185-6.688l-0.585-0.353
			c-0.207-0.097-0.423-0.175-0.635-0.265c-0.426-0.178-0.858-0.358-1.296-0.54c-0.424-0.222-0.917-0.264-1.382-0.405
			c-0.474-0.116-0.946-0.255-1.435-0.362c-0.502-0.053-1.009-0.108-1.522-0.163c-0.513-0.057-1.027-0.144-1.569-0.098
			c-1.073,0.042-2.164-0.023-3.295,0.199c-4.507,0.579-9.389,2.328-14.253,4.946c-4.947,2.465-9.795,5.943-14.653,9.92
			c-4.874,3.976-9.625,8.666-14.47,13.714c-1.217,1.252-2.434,2.541-3.657,3.854c-1.229,1.307-2.477,2.624-3.65,3.982
			c-1.191,1.358-2.415,2.696-3.61,4.106c-1.184,1.429-2.38,2.869-3.585,4.321c-2.433,2.922-4.837,5.948-7.482,8.934
			c-2.561,3.034-5.332,5.987-8.306,8.862c-2.982,2.863-6.201,5.62-9.794,8.04c-3.588,2.409-7.581,4.493-12.002,5.702
			c-4.401,1.224-9.245,1.447-13.849,0.401c-4.604-1.045-8.901-3.112-12.681-5.943c-3.781-2.831-6.96-6.411-9.554-10.31
			c-2.603-3.906-4.657-8.127-6.373-12.453c-3.395-8.684-5.571-17.718-7.514-26.836c-1.881-9.118-3.433-18.307-5.386-27.383
			c-1.969-9.061-4.428-18.009-8.044-26.435c-3.673-8.361-8.666-16.177-14.978-22.568c-3.182-3.172-6.73-5.969-10.529-8.361
			c-3.811-2.376-7.863-4.351-12.047-5.945c-8.377-3.172-17.255-4.897-26.075-5.221c-8.843-0.383-17.64,0.527-26.136,2.131
			c-17.016,3.279-32.843,9.507-46.87,17.028c-7.005,3.782-13.622,7.888-19.63,12.311c-6.063,4.321-11.327,9.285-16.133,14.249
			c-1.177,1.267-2.343,2.522-3.495,3.764c-1.087,1.3-2.163,2.588-3.225,3.86c-0.528,0.639-1.068,1.262-1.577,1.904
			c-0.494,0.655-0.984,1.306-1.472,1.953c-0.973,1.296-1.935,2.576-2.883,3.84c-3.604,5.199-6.894,10.232-9.62,15.188
			c-5.567,9.842-9.552,18.907-12.537,26.473c-1.536,3.769-2.692,7.218-3.776,10.19c-0.991,3.004-1.836,5.559-2.491,7.641
			c-1.244,4.185-1.908,6.418-1.908,6.418l-1.233-0.35c0,0,0.667-2.242,1.917-6.447c0.658-2.092,1.507-4.66,2.503-7.678
			c1.088-2.986,2.252-6.453,3.795-10.243c3.001-7.607,7.008-16.724,12.614-26.634c2.745-4.988,6.06-10.062,9.693-15.302
			c0.957-1.275,1.927-2.566,2.908-3.872c0.492-0.653,0.987-1.309,1.484-1.97c0.513-0.648,1.058-1.276,1.59-1.921
			c1.073-1.285,2.158-2.582,3.255-3.895c1.164-1.253,2.34-2.521,3.528-3.8c4.853-5.013,10.173-10.028,16.304-14.399
			c6.067-4.465,12.724-8.595,19.78-12.406c14.128-7.573,30.062-13.846,47.237-17.158c8.577-1.619,17.466-2.54,26.427-2.153
			c8.946,0.331,17.958,2.078,26.48,5.306c4.257,1.622,8.384,3.633,12.271,6.056c3.875,2.439,7.499,5.296,10.751,8.538
			c6.456,6.535,11.521,14.481,15.249,22.965c3.666,8.541,6.142,17.574,8.121,26.675c1.961,9.116,3.513,18.308,5.389,27.394
			c1.932,9.076,4.104,18.066,7.451,26.626c1.691,4.265,3.71,8.405,6.248,12.214c2.531,3.802,5.611,7.266,9.257,9.996
			c3.64,2.728,7.791,4.718,12.187,5.717c4.399,0.997,9.007,0.788,13.236-0.387c4.246-1.161,8.121-3.176,11.625-5.53
			c3.51-2.363,6.677-5.074,9.621-7.898c2.935-2.839,5.684-5.766,8.228-8.781c2.622-2.959,5.026-5.985,7.458-8.904
			c4.756-5.914,9.684-11.252,14.568-16.338c4.862-5.066,9.647-9.792,14.577-13.813c4.913-4.023,9.834-7.553,14.878-10.07
			c4.955-2.662,9.963-4.472,14.69-5.081c1.18-0.227,2.339-0.166,3.473-0.207c0.57-0.046,1.121,0.045,1.669,0.103
			c0.548,0.061,1.089,0.119,1.624,0.178c0.524,0.113,1.033,0.261,1.541,0.385c0.5,0.151,1.026,0.204,1.484,0.437
			c0.471,0.196,0.935,0.39,1.394,0.581c0.228,0.098,0.46,0.184,0.682,0.288l0.629,0.376c3.396,1.905,5.795,4.59,7.608,7.068
			c1.721,2.57,2.985,4.907,3.853,6.884c0.428,0.992,0.829,1.857,1.135,2.622c0.284,0.776,0.523,1.428,0.716,1.954
			c0.386,1.051,0.585,1.594,0.585,1.594L411.573,121.482z"/>
		<polygon style="fill:#717375;" points="13.384,147.361 13.232,147.872 9.286,146.685 9.441,146.165 		"/>
		<polygon style="fill:#717375;" points="15.517,140.651 15.351,141.158 11.439,139.866 11.607,139.351 		"/>
		<polygon style="fill:#717375;" points="17.83,134.003 17.65,134.505 13.775,133.106 13.958,132.595 		"/>
		<polygon style="fill:#717375;" points="20.33,127.426 20.134,127.922 16.301,126.411 16.5,125.906 		"/>
		<polygon style="fill:#717375;" points="23.022,120.929 22.811,121.418 19.026,119.792 19.241,119.294 		"/>
		<polygon style="fill:#717375;" points="25.916,114.523 25.689,115.005 21.958,113.257 22.189,112.766 		"/>
		<polygon style="fill:#717375;" points="29.02,108.222 28.776,108.695 25.107,106.82 25.356,106.337 		"/>
		<polygon style="fill:#717375;" points="32.343,102.037 32.081,102.5 28.483,100.493 28.75,100.021 		"/>
		<polygon style="fill:#717375;" points="35.893,95.986 35.613,96.438 32.095,94.293 32.382,93.831 		"/>
		<polygon style="fill:#717375;" points="39.68,90.087 39.381,90.526 35.954,88.238 36.262,87.788 		"/>
		<polygon style="fill:#717375;" points="43.713,84.36 43.394,84.784 40.071,82.347 40.399,81.912 		"/>
		<polygon style="fill:#717375;" points="47.999,78.827 47.659,79.234 44.454,76.645 44.804,76.226 		"/>
		<polygon style="fill:#717375;" points="52.544,73.512 52.184,73.9 49.112,71.155 49.483,70.755 		"/>
		<polygon style="fill:#717375;" points="57.353,68.443 56.971,68.811 54.048,65.907 54.442,65.528 		"/>
		<polygon style="fill:#717375;" points="62.426,63.647 62.024,63.991 59.267,60.929 59.683,60.574 		"/>
		<polygon style="fill:#717375;" points="67.761,59.153 67.339,59.472 64.766,56.253 65.203,55.923 		"/>
		<polygon style="fill:#717375;" points="73.349,54.978 72.909,55.276 70.536,51.908 70.987,51.602 		"/>
		<polygon style="fill:#717375;" points="79.182,51.088 78.733,51.371 76.501,47.909 76.961,47.618 		"/>
		<polygon style="fill:#717375;" points="85.166,47.428 84.707,47.696 82.614,44.147 83.084,43.872 		"/>
		<polygon style="fill:#717375;" points="91.288,43.999 90.82,44.252 88.867,40.625 89.345,40.366 		"/>
		<polygon style="fill:#717375;" points="97.535,40.807 97.06,41.044 95.248,37.344 95.735,37.101 		"/>
		<polygon style="fill:#717375;" points="103.901,37.856 103.417,38.077 101.752,34.308 102.247,34.082 		"/>
		<path style="fill:#717375;" d="M110.378,35.165c0,0-0.125,0.046-0.249,0.093c-0.123,0.051-0.245,0.101-0.245,0.101l-1.514-3.832
			c0,0,0.126-0.052,0.252-0.104c0.128-0.047,0.255-0.095,0.255-0.095L110.378,35.165z"/>
		<polygon style="fill:#717375;" points="116.962,32.756 116.457,32.923 115.104,29.031 115.621,28.86 		"/>
		<polygon style="fill:#717375;" points="123.637,30.627 123.127,30.774 121.944,26.827 122.467,26.676 		"/>
		<polygon style="fill:#717375;" points="130.395,28.795 129.879,28.921 128.878,24.925 129.408,24.795 		"/>
		<polygon style="fill:#717375;" points="137.225,27.284 136.704,27.388 135.9,23.347 136.435,23.24 		"/>
		<polygon style="fill:#717375;" points="144.113,26.118 143.59,26.197 142.999,22.12 143.54,22.038 		"/>
		<polygon style="fill:#717375;" points="151.047,25.324 150.521,25.378 150.163,21.274 150.707,21.217 		"/>
		<polygon style="fill:#717375;" points="158.005,24.965 157.478,24.963 157.375,20.844 157.924,20.845 		"/>
		<polygon style="fill:#717375;" points="164.957,25.068 164.432,25.041 164.615,20.924 165.165,20.953 		"/>
		<polygon style="fill:#717375;" points="171.864,25.685 171.344,25.613 171.849,21.523 172.395,21.599 		"/>
		<polygon style="fill:#717375;" points="178.694,26.848 178.183,26.73 179.019,22.696 179.557,22.819 		"/>
		<polygon style="fill:#717375;" points="185.396,28.575 184.891,28.433 186.07,24.486 186.602,24.634 		"/>
		<polygon style="fill:#717375;" points="191.901,30.903 191.413,30.713 192.946,26.889 193.462,27.09 		"/>
		<polygon style="fill:#717375;" points="198.145,33.827 197.68,33.588 199.579,29.93 200.071,30.185 		"/>
		<polygon style="fill:#717375;" points="204.05,37.358 203.616,37.068 205.885,33.629 206.347,33.937 		"/>
		<polygon style="fill:#717375;" points="209.529,41.494 209.134,41.155 211.77,37.989 212.193,38.351 		"/>
		<polygon style="fill:#717375;" points="214.498,46.217 214.15,45.831 217.136,42.992 217.51,43.405 		"/>
		<polygon style="fill:#717375;" points="218.883,51.514 218.561,51.102 221.837,48.602 222.177,49.039 		"/>
		<polygon style="fill:#717375;" points="222.79,57.202 222.501,56.765 225.999,54.59 226.303,55.051 		"/>
		<polygon style="fill:#717375;" points="226.116,63.269 225.891,62.793 229.567,60.932 229.804,61.429 		"/>
		<polygon style="fill:#717375;" points="228.956,69.6 228.758,69.111 232.566,67.538 232.772,68.047 		"/>
		<polygon style="fill:#717375;" points="231.373,76.131 231.199,75.631 235.102,74.31 235.281,74.827 		"/>
		<polygon style="fill:#717375;" points="233.422,82.812 233.275,82.303 237.242,81.19 237.393,81.714 		"/>
		<polygon style="fill:#717375;" points="235.143,89.618 235.024,89.098 239.031,88.141 239.153,88.67 		"/>
		
			<rect x="236.563" y="95.54" transform="matrix(0.9791 -0.2036 0.2036 0.9791 -14.5063 50.5778)" style="fill:#717375;" width="4.12" height="0.538"/>
		
			<rect x="237.958" y="102.497" transform="matrix(0.9817 -0.1907 0.1907 0.9817 -15.1908 47.6482)" style="fill:#717375;" width="4.12" height="0.538"/>
		
			<rect x="239.285" y="109.467" transform="matrix(0.9826 -0.1859 0.1859 0.9826 -16.194 46.7831)" style="fill:#717375;" width="4.12" height="0.537"/>
		<polygon style="fill:#717375;" points="240.72,117.367 240.614,116.836 244.657,116.04 244.762,116.564 		"/>
		
			<rect x="242.068" y="123.379" transform="matrix(0.9772 -0.2122 0.2122 0.9772 -20.681 54.6303)" style="fill:#717375;" width="4.12" height="0.538"/>
		<polygon style="fill:#717375;" points="243.805,131.322 243.677,130.794 247.674,129.794 247.8,130.311 		"/>
		<polygon style="fill:#717375;" points="245.678,138.243 245.529,137.72 249.485,136.572 249.631,137.081 		"/>
		<polygon style="fill:#717375;" points="247.9,145.104 247.715,144.587 251.601,143.217 251.778,143.713 		"/>
		<polygon style="fill:#717375;" points="250.625,151.832 250.391,151.331 254.152,149.65 254.374,150.122 		"/>
		<polygon style="fill:#717375;" points="254.021,158.314 253.732,157.837 257.284,155.748 257.551,156.189 		"/>
		<polygon style="fill:#717375;" points="258.274,164.355 257.92,163.917 261.124,161.327 261.445,161.724 		"/>
		<polygon style="fill:#717375;" points="263.532,169.65 263.107,169.273 265.774,166.133 266.151,166.469 		"/>
		<path style="fill:#717375;" d="M269.812,173.774c0,0-0.518-0.242-0.51-0.255l1.935-3.637c-0.008,0.013,0.449,0.223,0.449,0.223
			L269.812,173.774z"/>
		<polygon style="fill:#717375;" points="276.896,176.4 276.328,176.284 277.361,172.295 277.846,172.39 		"/>
		<polygon style="fill:#717375;" points="284.478,177.117 283.899,177.145 283.81,173.026 284.304,173.001 		"/>
		<polygon style="fill:#717375;" points="291.946,175.821 291.394,175.975 290.257,172.015 290.739,171.881 		"/>
		<path style="fill:#717375;" d="M298.837,172.913c0.007,0.01-0.501,0.259-0.501,0.259l-1.913-3.649c0,0,0.458-0.223,0.453-0.233
			L298.837,172.913z"/>
		<polygon style="fill:#717375;" points="305.032,168.918 304.59,169.253 302.166,165.922 302.58,165.607 		"/>
		<polygon style="fill:#717375;" points="311.203,163.77 310.796,164.141 308.019,161.097 308.407,160.744 		"/>
		<polygon style="fill:#717375;" points="316.339,158.686 315.959,159.08 312.982,156.232 313.349,155.852 		"/>
		<polygon style="fill:#717375;" points="321.128,153.337 320.772,153.747 317.67,151.036 318.017,150.635 		"/>
		<polygon style="fill:#717375;" points="325.734,147.877 325.39,148.294 322.218,145.665 322.558,145.251 		"/>
		
			<rect x="328.227" y="139.243" transform="matrix(0.6389 -0.7693 0.7693 0.6389 9.9217 303.7425)" style="fill:#717375;" width="0.537" height="4.12"/>
		<polygon style="fill:#717375;" points="334.827,137.085 334.475,137.482 331.392,134.749 331.754,134.342 		"/>
		
			<rect x="337.622" y="128.609" transform="matrix(0.6834 -0.7301 0.7301 0.6834 11.5906 288.0636)" style="fill:#717375;" width="0.538" height="4.12"/>
		<polygon style="fill:#717375;" points="344.45,126.776 344.079,127.161 341.122,124.292 341.497,123.902 		"/>
		<polygon style="fill:#717375;" points="349.421,121.801 349.043,122.176 346.172,119.221 346.558,118.838 		"/>
		<path style="fill:#717375;" d="M354.557,117.04c0,0-0.101,0.085-0.201,0.171c-0.098,0.09-0.195,0.18-0.195,0.18l-2.738-3.079
			c0,0,0.1-0.093,0.2-0.186c0.104-0.088,0.208-0.177,0.208-0.177L354.557,117.04z"/>
		<polygon style="fill:#717375;" points="359.929,112.598 359.507,112.914 356.957,109.677 357.397,109.347 		"/>
		<polygon style="fill:#717375;" points="365.565,108.554 365.124,108.839 362.828,105.417 363.292,105.119 		"/>
		<polygon style="fill:#717375;" points="371.492,105.017 371.03,105.263 369.06,101.645 369.548,101.384 		"/>
		<polygon style="fill:#717375;" points="377.68,102.051 377.204,102.259 375.65,98.443 376.161,98.222 		"/>
		<polygon style="fill:#717375;" points="384.126,100.077 383.633,100.2 382.732,96.179 383.285,96.044 		"/>
		<path style="fill:#717375;" d="M390.655,99.504c0.002-0.018-0.488-0.028-0.49-0.016l0.128-4.119c0-0.011,0.584,0.003,0.585,0.021
			L390.655,99.504z"/>
		<polygon style="fill:#717375;" points="396.845,100.949 396.4,100.763 397.915,96.931 398.466,97.161 		"/>
		<path style="fill:#717375;" d="M402.191,104.422c0.01-0.013-0.36-0.335-0.367-0.326l2.721-3.093
			c0.009-0.008,0.45,0.377,0.438,0.388L402.191,104.422z"/>
		<polygon style="fill:#717375;" points="406.391,109.5 406.118,109.071 409.523,106.751 409.829,107.229 		"/>
		<polygon style="fill:#717375;" points="409.618,115.448 409.41,114.972 413.148,113.24 413.372,113.75 		"/>
		<path style="fill:#717375;" d="M414.209,120.597c0,0-0.203-0.554-0.597-1.628c-0.197-0.537-0.441-1.204-0.732-1.997
			c-0.313-0.784-0.725-1.674-1.164-2.691c-0.892-2.028-2.196-4.447-3.994-7.128c-1.897-2.592-4.434-5.451-8.104-7.512l-0.68-0.404
			c-0.24-0.112-0.49-0.207-0.737-0.313c-0.497-0.206-1-0.416-1.51-0.627c-0.498-0.248-1.063-0.313-1.604-0.475
			c-0.548-0.135-1.1-0.293-1.665-0.413c-0.574-0.063-1.155-0.128-1.743-0.193c-0.588-0.063-1.181-0.154-1.785-0.111
			c-1.204,0.041-2.444-0.016-3.681,0.22c-4.983,0.642-10.14,2.525-15.201,5.239c-5.157,2.576-10.163,6.169-15.141,10.245
			c-4.995,4.076-9.82,8.843-14.702,13.929c-4.879,5.078-9.88,10.499-14.645,16.425c-2.43,2.919-4.834,5.943-7.43,8.871
			c-2.524,2.992-5.248,5.891-8.138,8.686c-2.899,2.783-6.006,5.438-9.418,7.735c-3.407,2.289-7.143,4.224-11.183,5.328
			c-4.027,1.115-8.359,1.31-12.518,0.368c-4.154-0.942-8.133-2.843-11.61-5.451c-3.487-2.611-6.454-5.938-8.91-9.628
			c-2.462-3.694-4.439-7.742-6.102-11.935c-3.292-8.413-5.457-17.355-7.377-26.379c-1.868-9.047-3.42-18.244-5.391-27.406
			c-1.99-9.151-4.488-18.28-8.212-26.957c-3.793-8.627-8.942-16.724-15.566-23.429c-3.335-3.323-7.049-6.249-11.012-8.744
			c-3.976-2.478-8.19-4.533-12.532-6.187c-8.692-3.292-17.86-5.065-26.954-5.402c-9.1-0.392-18.097,0.542-26.768,2.179
			c-17.362,3.348-33.423,9.675-47.667,17.31c-7.117,3.844-13.821,8.002-19.956,12.517c-6.212,4.43-11.596,9.504-16.505,14.575
			c-1.202,1.295-2.391,2.576-3.568,3.843c-1.109,1.327-2.205,2.639-3.289,3.936c-0.538,0.652-1.088,1.287-1.607,1.942
			c-0.503,0.667-1.003,1.33-1.5,1.989c-0.991,1.32-1.969,2.623-2.936,3.91c-3.668,5.288-7.011,10.408-9.778,15.436
			c-5.65,9.99-9.684,19.17-12.704,26.825c-1.553,3.814-2.723,7.3-3.819,10.304c-1.002,3.036-1.855,5.619-2.517,7.722
			c-1.257,4.228-1.927,6.482-1.927,6.482l-1.233-0.349c0,0,0.674-2.265,1.936-6.512c0.665-2.113,1.523-4.709,2.53-7.759
			c1.1-3.02,2.277-6.523,3.838-10.358c3.036-7.696,7.093-16.928,12.782-26.987c2.786-5.06,6.153-10.219,9.851-15.549
			c0.974-1.298,1.961-2.613,2.96-3.943c0.501-0.664,1.005-1.333,1.512-2.005c0.523-0.659,1.078-1.302,1.621-1.959
			c1.094-1.308,2.201-2.632,3.319-3.971c1.187-1.279,2.388-2.573,3.601-3.88c4.955-5.119,10.395-10.244,16.676-14.724
			c6.194-4.558,12.936-8.739,20.106-12.612c14.344-7.688,30.513-14.061,48.035-17.441c8.751-1.652,17.84-2.596,27.059-2.199
			c9.221,0.342,18.522,2.139,27.36,5.485c4.414,1.681,8.704,3.772,12.756,6.298c4.039,2.542,7.829,5.528,11.234,8.921
			c6.768,6.85,11.99,15.076,15.838,23.826c3.773,8.792,6.29,18.006,8.29,27.197c1.979,9.203,3.532,18.402,5.393,27.418
			c1.91,8.982,4.069,17.881,7.314,26.169c1.637,4.13,3.579,8.098,5.977,11.695c2.392,3.594,5.262,6.805,8.612,9.314
			c3.337,2.505,7.171,4.331,11.117,5.225c3.956,0.894,8.051,0.712,11.906-0.353c3.864-1.056,7.482-2.922,10.806-5.156
			c3.329-2.24,6.383-4.848,9.244-7.595c2.852-2.758,5.554-5.631,8.061-8.604c2.572-2.902,4.977-5.926,7.405-8.843
			c1.218-1.468,2.425-2.923,3.622-4.366c1.214-1.433,2.48-2.819,3.701-4.211c1.217-1.406,2.467-2.724,3.7-4.036
			c1.227-1.318,2.453-2.614,3.688-3.886c4.899-5.105,9.758-9.906,14.809-14.029c5.033-4.123,10.111-7.768,15.365-10.394
			c5.153-2.761,10.436-4.703,15.638-5.376c1.285-0.242,2.595-0.189,3.859-0.228c0.633-0.044,1.263,0.049,1.885,0.116
			c0.622,0.07,1.237,0.139,1.845,0.208c0.6,0.126,1.188,0.292,1.771,0.436c0.576,0.171,1.174,0.246,1.706,0.507
			c0.543,0.226,1.079,0.447,1.609,0.667c0.263,0.114,0.529,0.216,0.784,0.336l0.724,0.427c3.905,2.194,6.559,5.201,8.528,7.891
			c1.864,2.776,3.201,5.264,4.114,7.338c0.449,1.039,0.87,1.95,1.189,2.75c0.296,0.806,0.545,1.485,0.746,2.032
			c0.401,1.093,0.607,1.658,0.607,1.658L414.209,120.597z"/>
	</g>
	<g>
		<g>
			<g>
				<g>
					<path style="fill:#EBEBEC;" d="M361.663,53.285c-1.431-1.856-2.974-3.176-4.553-4.087c-2.411,1.321-4.7,3.177-6.303,4.782
						c-2.917,2.921-5.479,6.713-5.54,10.881c11.102,18.708,31.842,33.01,31.842,33.01l14.008-19.903
						C381.711,72.655,367.991,61.488,361.663,53.285z"/>
					<path style="fill:#D9D9DB;" d="M361.663,53.285c-1.431-1.856-2.974-3.176-4.553-4.087c-2.411,1.321-4.7,3.177-6.303,4.782
						c-2.6,2.602-4.912,5.898-5.429,9.534c0.536,1.666,1.45,3.208,2.794,4.366c2.621,2.258,5.364,2.257,8.594,2.663
						c3.959,0.497,13.975,11.464,13.982,15.245c0.005,2.809,0.204,5.323,0.684,7.77c3.418,2.752,5.678,4.313,5.678,4.313
						l14.008-19.903C381.711,72.655,367.991,61.488,361.663,53.285z"/>
					<path style="fill:#D9D9DB;" d="M358.769,69.606c4.383-1.434,8.817-4.265,9.911-8.726c-2.76-2.636-5.199-5.238-7.017-7.594
						c-1.431-1.856-2.974-3.176-4.553-4.087c-2.411,1.321-4.7,3.177-6.303,4.782c-2.6,2.602-4.912,5.898-5.429,9.534
						c0.484,1.506,1.297,2.896,2.438,4.007C350.821,69.887,355.522,70.669,358.769,69.606z"/>
					<path style="fill:#818386;" d="M373.093,64.889c0.379,0.329,0.76,0.658,1.147,0.986c-2.714,7.124-7.388,13.563-13.099,18.565
						c-0.657-0.641-1.318-1.306-1.982-1.983C365.23,78.135,370.154,71.765,373.093,64.889z"/>
					<path style="fill:#EBEBEC;" d="M398.839,102.301c0,0-13.038,2.628-22.694-0.797c-9.657-3.425-0.805-35.979,8.846-30.477
						C394.642,76.529,401.735,101.85,398.839,102.301z"/>
					<path style="fill:#EBEBEC;" d="M383.62,102.014c0,0-7.702,0.869-10.051-4.791c-2.349-5.662,0.531-14.701,2.735-19.647
						c0,0-4.036,11.553-1.964,17.258C376.412,100.539,383.62,102.014,383.62,102.014z"/>
					<g>
						<path style="fill:#D9D9DB;" d="M347.215,35.868c1.665,1.999,3.929,3.711,6.401,4.567c2.627,0.909,5.764,1.672,8.504,0.731
							c1.314-0.448,2.359-1.342,3.411-2.209c0.401,8.92,0.65,19.46,0.65,19.46s-1.902,11.987-13.613,11.495
							c0,0-8.269-1.751-9.045-9.786c-0.529-5.459,0.616-17.236,2.938-25.218C346.715,35.255,346.973,35.577,347.215,35.868z"/>
						<path style="fill:#EBEBEC;" d="M355.926,42.575l0.014-1.443c-0.801-0.197-1.584-0.442-2.325-0.697
							c-2.421-0.837-4.64-2.502-6.294-4.446c-0.183,0.616-0.37,1.295-0.557,2.014C348.632,40.822,352.616,42.547,355.926,42.575z"/>
						<path style="fill:#EBEBEC;" d="M346.294,39.911c-1.263,5.37-2.401,12.388-2.268,17.341c0.211,7.784,5.857,9.792,5.857,9.792
							c4.418,1.728,5.809,0.168,5.809,0.168l0.219-23.108C352.463,44.054,348.635,42.539,346.294,39.911z"/>
					</g>
					<path style="fill:#D9D9DB;" d="M371.484,19.108c-1.812-0.408-3.705,0.566-4.907,1.871c-0.456,0.495-3.561,4.439-3.356,4.813
						c-1.394-2.538-2.233-10.611-2.252-11.68c-0.024-1.403,0.161-2.842,0.059-4.238c0.004-1.018-0.244-1.968-0.743-2.85
						c-1.842-1.417-3.156-1.21-3.941,0.621c-0.006,0.013-0.016,0.018-0.022,0.03c-0.29,0.851-0.495,1.783-0.645,2.692
						c-0.191,0.86-0.295,1.781-0.336,2.723c-0.035,0.37-0.066,0.711-0.095,1.003c-0.013,0.127-0.019,0.265-0.031,0.395
						c-0.627-2.99-0.583-6.085-1.479-9.044c-0.49-1.614-2.728-1.641-3.629-0.47c-1.552,2.015-1.841,4.569-1.78,7.058
						c-0.397-1.09-0.797-2.179-1.078-3.332c-0.388-1.594-1.896-3.105-3.601-1.861c-1.917,1.398-2.38,3.528-1.92,5.877
						c0.036,0.183,0.086,0.387,0.127,0.58c-0.487-0.574-1.083-0.944-1.83-0.906c-3.138,0.163-2.919,3.362-2.755,5.674
						c0.396,5.569,2.208,10.825,5.367,15.431c1.693,2.468,3.459,5.022,5.882,6.837c4.217,3.158,11.814,4.189,16.22,0.871
						c3.492-2.63,3.689-7.014,4.585-10.93c0.334-1.461,0.831-2.876,1.375-4.27c0.644-1.65,1.975-3.484,1.979-5.309
						C372.682,19.735,372.188,19.266,371.484,19.108z"/>
					<path style="opacity:0.6;fill:#D9D9DB;" d="M372.226,19.501c-3.964-0.469-6.4,5.18-8.227,7.699
						c-2.801,3.863-3.456,6.678-1.532,11.121c0.396,0.914-0.95,1.711-1.349,0.788c-1.013-2.34-2.335-5.42-1.31-8.001
						c0.801-2.019,2.06-3.755,3.327-5.497c-1.342-2.707-2.148-10.453-2.166-11.499c-0.024-1.403,0.161-2.842,0.059-4.238
						c0.002-0.484-0.057-0.951-0.169-1.405c-0.019-0.036-0.047-0.061-0.062-0.101c-0.745-2.061-2.389-0.134-2.733,0.955
						c-0.313,0.989-1.111,1.948-1.364,2.96c-0.424,1.698-0.782,5.599-0.935,4.876c-0.2-0.941-0.384-1.881-0.538-2.824
						c-0.004,0.052-0.008,0.103-0.012,0.154c-0.591-2.818-0.595-5.729-1.343-8.532c-1.848-1.696-3.861,0.566-4.133,2.325
						c-0.235,1.522-0.697,5.7-1.006,4.876c-0.165-0.44-0.294-0.888-0.406-1.339c0.001,0.072-0.001,0.144,0.001,0.216
						c-0.397-1.09-0.797-2.179-1.078-3.332c-0.198-0.812-0.687-1.6-1.344-2.016c-3.755,0.504-2.751,8.123-3.155,7.604
						c-0.281-0.361-0.591-0.694-0.902-1.028c0.002,0.012,0.005,0.024,0.008,0.035c-0.487-0.574-1.083-0.944-1.83-0.906
						c-0.283,0.014-0.53,0.062-0.762,0.123c-3.564,2.677,2.219,15.13,3.584,17.699c2.123,3.995,4.831,8.156,8.797,10.548
						c2.704,1.631,5.429,2.255,8.284,2.337c1.779-0.26,3.448-0.868,4.811-1.894c3.492-2.63,3.689-7.014,4.585-10.93
						c0.334-1.461,0.831-2.876,1.375-4.27c0.644-1.65,1.975-3.484,1.979-5.309C372.682,20.139,372.503,19.762,372.226,19.501z"/>
					<path style="opacity:0.6;fill:#D9D9DB;" d="M360.223,15.526c-0.035,4.049,0.517,7.833,1.83,11.604
						c0.354-0.51,0.716-1.015,1.083-1.519c-1.342-2.707-2.148-10.453-2.166-11.499c-0.024-1.403,0.161-2.842,0.059-4.238
						c0.002-0.452-0.055-0.887-0.152-1.312C360.926,10.862,360.242,13.314,360.223,15.526z"/>
					<path style="opacity:0.6;fill:#EBEBEC;" d="M357.001,24.247c-1.486-1.279-3.498-0.571-5.09-0.263
						c-0.857,0.166-2.266,1.017-3.101,1.279c-1.677,0.523-3.238,1.462-3.891,3.174c-0.336,0.882,0.473,1.791,1.355,1.981
						c0.926,0.198,1.879,0.26,2.824,0.174c1.741-0.158,3.053-0.752,4.505-1.704c1.256-0.824,2.786-1.899,3.475-3.271
						C357.412,24.951,357.317,24.519,357.001,24.247z"/>
					<path style="opacity:0.6;fill:#D9D9DB;" d="M370.26,24.647c-1.903,3.543-1.664,7.249-2.605,11.025
						c-0.398,1.599-0.979,3.171-1.798,4.517c2.431-2.657,2.681-6.466,3.47-9.914c0.334-1.461,0.831-2.876,1.375-4.27
						c0.644-1.65,1.975-3.484,1.979-5.309c0-0.114-0.012-0.216-0.026-0.315C372.353,21.862,371.153,22.985,370.26,24.647z"/>
				</g>
			</g>
			<path style="fill:#C9CACC;" d="M357.94,22.716c-0.034-0.004-0.068-0.012-0.102-0.016c-1.099-2.515-2.127-5.446-2.592-8.197
				c-0.06,0.274-0.106,0.551-0.13,0.833c0.241,2.5,1.322,5.183,2.405,7.321c-1.809-0.167-3.721,0.188-5.432,0.727
				c-1.735-3.881-2.726-8.003-3.927-12.064c0.008,0.168,0.022,0.334,0.032,0.501c0.078,0.88,0.184,1.757,0.404,2.615
				c0.184,0.719,0.38,1.431,0.553,2.15c0.69,2.346,1.553,4.636,2.663,6.885c-0.085,0.028-0.173,0.053-0.257,0.082
				c-1.247,0.43-3.306,1.018-4.971,1.909c-1.076-2.307-1.745-4.755-2.401-7.213c-0.438-1.64-0.879-3.47-2.002-4.716
				c-0.212-0.133-0.425-0.265-0.645-0.381c1.764,1.646,2.207,4.672,2.721,6.892c0.434,1.875,1.068,3.861,2.033,5.577
				c-0.527,0.303-0.987,0.645-1.366,1.02C348.633,24.252,353.493,22.927,357.94,22.716z"/>
			<path style="fill:#C9CACC;" d="M363.475,25.16c-1.751,2.209-3.48,4.389-4.249,7.154c-0.484,1.742,0.003,5.293,1.547,6.497
				c0.057,0.044,0.178-0.054,0.131-0.116c-0.008-0.01-0.016-0.02-0.024-0.03c-0.042-0.054-0.126,0.044-0.12,0.089
				c-0.25-1.897-1.308-3.636-1.213-5.787c0.131-2.975,2.717-5.354,4.099-7.762C363.724,25.069,363.537,25.082,363.475,25.16z"/>
			<path style="opacity:0.5;fill:#EBEBEC;" d="M349.74,69.926c0,0,10.013,13.247,20.036,21.007c0,0,0.474-1.814-1.096-4.1
				c-1.571-2.286-12.739-14.168-12.739-14.168L349.74,69.926z"/>
			<path style="fill:#EBEBEC;" d="M358.088,42.619c-3.35-0.344-5.641-1.285-8.243-3.446c-2.215-1.84-4.003-4.269-5.589-6.657
				c-3.432-5.166-6.728-12.713-5.559-19.031c0.017-0.091-0.109-0.036-0.125,0.021c-1.724,6.41,1.454,13.482,4.556,18.976
				c2.932,5.194,8.532,10.634,14.877,10.332C358.083,42.809,358.211,42.631,358.088,42.619z"/>
		</g>
		<g>
			<g>
				<g>
					<path style="fill:#EBEBEC;" d="M480.918,53.285c1.431-1.856,2.974-3.176,4.552-4.087c2.411,1.321,4.7,3.177,6.303,4.782
						c2.918,2.921,5.479,6.713,5.54,10.881c-11.102,18.708-31.841,33.01-31.841,33.01l-14.008-19.903
						C460.869,72.655,474.59,61.488,480.918,53.285z"/>
					<path style="fill:#D9D9DB;" d="M480.918,53.285c1.431-1.856,2.974-3.176,4.552-4.087c2.411,1.321,4.7,3.177,6.303,4.782
						c2.599,2.602,4.911,5.898,5.429,9.534c-0.535,1.666-1.45,3.208-2.793,4.366c-2.621,2.258-5.365,2.257-8.594,2.663
						c-3.96,0.497-13.975,11.464-13.982,15.245c-0.006,2.809-0.204,5.323-0.684,7.77c-3.418,2.752-5.678,4.313-5.678,4.313
						l-14.008-19.903C460.869,72.655,474.59,61.488,480.918,53.285z"/>
					<path style="fill:#D9D9DB;" d="M483.811,69.606c-4.383-1.434-8.816-4.265-9.911-8.726c2.76-2.636,5.199-5.238,7.017-7.594
						c1.431-1.856,2.974-3.176,4.552-4.087c2.411,1.321,4.7,3.177,6.303,4.782c2.599,2.602,4.911,5.898,5.429,9.534
						c-0.484,1.506-1.297,2.896-2.438,4.007C491.76,69.887,487.058,70.669,483.811,69.606z"/>
					<path style="fill:#818386;" d="M469.487,64.889c-0.38,0.329-0.761,0.658-1.147,0.986c2.715,7.124,7.389,13.563,13.099,18.565
						c0.656-0.641,1.319-1.306,1.982-1.983C477.35,78.135,472.426,71.765,469.487,64.889z"/>
					<path style="fill:#EBEBEC;" d="M443.741,102.301c0,0,13.038,2.628,22.695-0.797c9.656-3.425,0.804-35.979-8.848-30.477
						C447.938,76.529,440.845,101.85,443.741,102.301z"/>
					<path style="fill:#EBEBEC;" d="M458.96,102.014c0,0,7.703,0.869,10.052-4.791c2.348-5.662-0.531-14.701-2.736-19.647
						c0,0,4.035,11.553,1.965,17.258C466.169,100.539,458.96,102.014,458.96,102.014z"/>
					<g>
						<path style="fill:#D9D9DB;" d="M495.365,35.868c-1.665,1.999-3.929,3.711-6.401,4.567c-2.627,0.909-5.764,1.672-8.505,0.731
							c-1.314-0.448-2.36-1.342-3.411-2.209c-0.402,8.92-0.65,19.46-0.65,19.46s1.902,11.987,13.612,11.495
							c0,0,8.27-1.751,9.046-9.786c0.529-5.459-0.616-17.236-2.938-25.218C495.865,35.255,495.607,35.577,495.365,35.868z"/>
						<path style="fill:#EBEBEC;" d="M486.654,42.575l-0.014-1.443c0.801-0.197,1.584-0.442,2.325-0.697
							c2.421-0.837,4.641-2.502,6.294-4.446c0.183,0.616,0.37,1.295,0.557,2.014C493.948,40.822,489.964,42.547,486.654,42.575z"/>
						<path style="fill:#EBEBEC;" d="M496.286,39.911c1.264,5.37,2.401,12.388,2.268,17.341c-0.21,7.784-5.856,9.792-5.856,9.792
							c-4.419,1.728-5.81,0.168-5.81,0.168l-0.219-23.108C490.117,44.054,493.944,42.539,496.286,39.911z"/>
					</g>
					<path style="fill:#D9D9DB;" d="M471.096,19.108c1.811-0.408,3.705,0.566,4.907,1.871c0.455,0.495,3.561,4.439,3.355,4.813
						c1.394-2.538,2.234-10.611,2.253-11.68c0.024-1.403-0.161-2.842-0.059-4.238c-0.004-1.018,0.243-1.968,0.743-2.85
						c1.842-1.417,3.156-1.21,3.941,0.621c0.006,0.013,0.016,0.018,0.023,0.03c0.29,0.851,0.494,1.783,0.644,2.692
						c0.191,0.86,0.296,1.781,0.337,2.723c0.034,0.37,0.065,0.711,0.095,1.003c0.012,0.127,0.019,0.265,0.03,0.395
						c0.627-2.99,0.583-6.085,1.479-9.044c0.49-1.614,2.728-1.641,3.629-0.47c1.552,2.015,1.842,4.569,1.78,7.058
						c0.397-1.09,0.797-2.179,1.078-3.332c0.388-1.594,1.896-3.105,3.601-1.861c1.917,1.398,2.38,3.528,1.92,5.877
						c-0.036,0.183-0.086,0.387-0.127,0.58c0.487-0.574,1.083-0.944,1.829-0.906c3.138,0.163,2.919,3.362,2.755,5.674
						c-0.396,5.569-2.207,10.825-5.367,15.431c-1.692,2.468-3.459,5.022-5.881,6.837c-4.217,3.158-11.814,4.189-16.221,0.871
						c-3.492-2.63-3.689-7.014-4.585-10.93c-0.335-1.461-0.832-2.876-1.376-4.27c-0.644-1.65-1.976-3.484-1.98-5.309
						C469.897,19.735,470.392,19.266,471.096,19.108z"/>
					<path style="opacity:0.6;fill:#D9D9DB;" d="M470.354,19.501c3.964-0.469,6.4,5.18,8.227,7.699
						c2.801,3.863,3.456,6.678,1.532,11.121c-0.396,0.914,0.949,1.711,1.349,0.788c1.013-2.34,2.334-5.42,1.31-8.001
						c-0.801-2.019-2.06-3.755-3.327-5.497c1.342-2.707,2.148-10.453,2.166-11.499c0.024-1.403-0.161-2.842-0.059-4.238
						c-0.002-0.484,0.057-0.951,0.169-1.405c0.019-0.036,0.047-0.061,0.062-0.101c0.744-2.061,2.389-0.134,2.733,0.955
						c0.313,0.989,1.111,1.948,1.364,2.96c0.424,1.698,0.781,5.599,0.935,4.876c0.2-0.941,0.384-1.881,0.538-2.824
						c0.004,0.052,0.008,0.103,0.012,0.154c0.591-2.818,0.595-5.729,1.343-8.532c1.847-1.696,3.861,0.566,4.132,2.325
						c0.236,1.522,0.697,5.7,1.007,4.876c0.166-0.44,0.295-0.888,0.406-1.339c-0.001,0.072,0.001,0.144-0.001,0.216
						c0.397-1.09,0.797-2.179,1.078-3.332c0.198-0.812,0.687-1.6,1.344-2.016c3.755,0.504,2.751,8.123,3.155,7.604
						c0.281-0.361,0.591-0.694,0.902-1.028c-0.003,0.012-0.005,0.024-0.008,0.035c0.487-0.574,1.083-0.944,1.829-0.906
						c0.284,0.014,0.53,0.062,0.762,0.123c3.565,2.677-2.219,15.13-3.585,17.699c-2.122,3.995-4.83,8.156-8.796,10.548
						c-2.703,1.631-5.429,2.255-8.285,2.337c-1.779-0.26-3.448-0.868-4.81-1.894c-3.492-2.63-3.689-7.014-4.585-10.93
						c-0.335-1.461-0.832-2.876-1.376-4.27c-0.644-1.65-1.976-3.484-1.98-5.309C469.898,20.139,470.077,19.762,470.354,19.501z"/>
					<path style="opacity:0.6;fill:#D9D9DB;" d="M482.357,15.526c0.034,4.049-0.517,7.833-1.83,11.604
						c-0.354-0.51-0.716-1.015-1.083-1.519c1.342-2.707,2.148-10.453,2.166-11.499c0.024-1.403-0.161-2.842-0.059-4.238
						c-0.002-0.452,0.054-0.887,0.152-1.312C481.655,10.862,482.338,13.314,482.357,15.526z"/>
					<path style="opacity:0.6;fill:#EBEBEC;" d="M485.579,24.247c1.486-1.279,3.498-0.571,5.09-0.263
						c0.857,0.166,2.266,1.017,3.101,1.279c1.677,0.523,3.238,1.462,3.891,3.174c0.336,0.882-0.473,1.791-1.355,1.981
						c-0.926,0.198-1.879,0.26-2.825,0.174c-1.741-0.158-3.053-0.752-4.504-1.704c-1.256-0.824-2.786-1.899-3.476-3.271
						C485.168,24.951,485.264,24.519,485.579,24.247z"/>
					<path style="opacity:0.6;fill:#D9D9DB;" d="M472.32,24.647c1.904,3.543,1.663,7.249,2.605,11.025
						c0.398,1.599,0.978,3.171,1.798,4.517c-2.431-2.657-2.681-6.466-3.469-9.914c-0.335-1.461-0.832-2.876-1.376-4.27
						c-0.644-1.65-1.976-3.484-1.98-5.309c0-0.114,0.011-0.216,0.026-0.315C470.227,21.862,471.427,22.985,472.32,24.647z"/>
				</g>
			</g>
			<path style="fill:#C9CACC;" d="M484.64,22.716c0.034-0.004,0.067-0.012,0.102-0.016c1.099-2.515,2.126-5.446,2.592-8.197
				c0.059,0.274,0.105,0.551,0.13,0.833c-0.242,2.5-1.321,5.183-2.405,7.321c1.809-0.167,3.722,0.188,5.433,0.727
				c1.735-3.881,2.726-8.003,3.926-12.064c-0.008,0.168-0.022,0.334-0.032,0.501c-0.078,0.88-0.184,1.757-0.404,2.615
				c-0.184,0.719-0.381,1.431-0.553,2.15c-0.69,2.346-1.553,4.636-2.663,6.885c0.084,0.028,0.173,0.053,0.257,0.082
				c1.247,0.43,3.306,1.018,4.971,1.909c1.075-2.307,1.745-4.755,2.4-7.213c0.438-1.64,0.879-3.47,2.002-4.716
				c0.212-0.133,0.425-0.265,0.645-0.381c-1.765,1.646-2.207,4.672-2.721,6.892c-0.434,1.875-1.068,3.861-2.033,5.577
				c0.527,0.303,0.986,0.645,1.367,1.02C493.946,24.252,489.087,22.927,484.64,22.716z"/>
			<path style="fill:#C9CACC;" d="M479.105,25.16c1.751,2.209,3.48,4.389,4.249,7.154c0.485,1.742-0.003,5.293-1.547,6.497
				c-0.058,0.044-0.178-0.054-0.131-0.116c0.009-0.01,0.016-0.02,0.024-0.03c0.042-0.054,0.126,0.044,0.119,0.089
				c0.25-1.897,1.309-3.636,1.214-5.787c-0.132-2.975-2.718-5.354-4.099-7.762C478.856,25.069,479.044,25.082,479.105,25.16z"/>
			<path style="opacity:0.5;fill:#EBEBEC;" d="M492.84,69.926c0,0-10.013,13.247-20.036,21.007c0,0-0.475-1.814,1.096-4.1
				c1.572-2.286,12.74-14.168,12.74-14.168L492.84,69.926z"/>
			<path style="fill:#EBEBEC;" d="M484.492,42.619c3.35-0.344,5.641-1.285,8.243-3.446c2.215-1.84,4.003-4.269,5.589-6.657
				c3.432-5.166,6.728-12.713,5.559-19.031c-0.017-0.091,0.11-0.036,0.125,0.021c1.724,6.41-1.455,13.482-4.556,18.976
				c-2.932,5.194-8.532,10.634-14.878,10.332C484.497,42.809,484.369,42.631,484.492,42.619z"/>
		</g>
		<path style="fill:#EBEBEC;" d="M384.667,138.04c0,0-2.972,3.844-2.857,10.121c0.115,6.277,32.795,18.121,41.216,19.805
			c8.421,1.685,37.784-14.978,37.544-21.492c-0.241-6.515-1.224-9.25-5.169-9.386C451.456,136.952,384.667,138.04,384.667,138.04z"
			/>
		<path style="fill:#EBEBEC;" d="M388.051,151.603c-0.573-4.565-0.413-9.074-0.379-13.61c-1.91,0.03-3.005,0.047-3.005,0.047
			s-2.972,3.844-2.857,10.121c0.032,1.781,2.688,4.011,6.666,6.329C388.309,153.524,388.171,152.558,388.051,151.603z"/>
		<path style="fill:#EBEBEC;" d="M455.401,137.088c-0.409-0.014-1.5-0.015-3.118-0.005c0.011,0.087,0.026,0.174,0.037,0.262
			c0.309,2.624,0.544,5.298,0.51,7.943c-0.045,3.493-0.415,6.971-0.61,10.455c4.944-3.517,8.434-7.005,8.351-9.268
			C460.33,139.959,459.346,137.224,455.401,137.088z"/>
		<path style="fill:#D3D4D5;" d="M459.051,73.639c-2.842-7.645-28.85-7.829-28.85-7.829l-8.601,0.205L413,65.81
			c0,0-26.007,0.185-28.85,7.829c-2.843,7.645-2.61,62.711,0.742,67.297c2.3,3.148,14.422,6.924,27.692,8.687
			c2.981,0.396,5.733,0.395,8.731,0.557c2.998-0.162,6.321-0.161,9.302-0.557c13.27-1.764,25.393-5.54,27.693-8.687
			C461.661,136.35,461.894,81.284,459.051,73.639z"/>
		<path style="fill:#EBEBEC;" d="M456.98,73.207c-2.685-7.222-27.255-7.397-27.255-7.397l-8.126,0.193l-8.125-0.193
			c0,0-24.569,0.175-27.255,7.397c-2.686,7.22-2.466,59.242,0.7,63.575c2.173,2.973,13.625,6.541,26.162,8.207
			c2.816,0.373,5.416,0.373,8.248,0.527c2.832-0.153,5.971-0.153,8.788-0.527c12.537-1.666,23.989-5.234,26.162-8.207
			C459.447,132.449,459.666,80.427,456.98,73.207z"/>
		<path style="opacity:0.5;fill:#D9D9DB;" d="M423.195,145.492c-10.338,0.314-20.92-2.053-29.332-8.324
			c-5.264-3.924-8.797-8.815-11.299-14.333c0.423,9.268,1.198,16.554,2.327,18.1c2.3,3.148,14.422,6.924,27.692,8.687
			c2.981,0.396,5.733,0.395,8.731,0.557c2.998-0.162,6.321-0.161,9.302-0.557c13.27-1.764,25.393-5.54,27.693-8.687
			c0.882-1.208,1.548-5.918,1.999-12.336C451.913,139.734,436.944,145.074,423.195,145.492z"/>
		<path style="fill:#C9CACC;" d="M422.046,80.444c7.329-0.163,14.655-1.721,21.526-4.259c3.893-1.439,8.532-3.088,11.437-6.269
			c-8.094-3.987-24.808-4.106-24.808-4.106l-8.601,0.205L413,65.81c0,0-15.549,0.112-23.916,3.696
			C397.583,77.618,410.591,80.7,422.046,80.444z"/>
		<g>
			<g>
				<path style="fill:#EBEBEC;" d="M397.174,51.949c0,5.545-4.496,10.041-10.043,10.041l0,0c-5.545,0-10.042-4.496-10.042-10.041
					v-7.047c0-5.546,4.497-10.042,10.042-10.042l0,0c5.547,0,10.043,4.496,10.043,10.042V51.949z"/>
				<path style="fill:#C7C8CA;" d="M396.173,51.597c0,4.993-4.048,9.042-9.042,9.042l0,0c-4.994,0-9.043-4.049-9.043-9.042v-6.345
					c0-4.993,4.049-9.042,9.043-9.042l0,0c4.994,0,9.042,4.049,9.042,9.042V51.597z"/>
				<g>
					<path style="fill:#2A416F;" d="M384.379,41.483c0,1.131-0.917,2.049-2.049,2.049c-1.131,0-2.048-0.918-2.048-2.049
						s0.917-2.048,2.048-2.048C383.462,39.435,384.379,40.352,384.379,41.483z"/>
					<path style="fill:#FFFFFF;" d="M382.508,40.749c0,0.307-0.249,0.556-0.557,0.556c-0.307,0-0.556-0.249-0.556-0.556
						c0-0.308,0.249-0.556,0.556-0.556C382.259,40.193,382.508,40.441,382.508,40.749z"/>
					<path style="fill:#FFFFFF;" d="M381.395,41.919c0,0.14-0.115,0.256-0.256,0.256c-0.141,0-0.257-0.116-0.257-0.256
						c0-0.142,0.116-0.256,0.257-0.256C381.28,41.663,381.395,41.777,381.395,41.919z"/>
				</g>
				<g>
					<path style="fill:#2A416F;" d="M384,50.1c0,1.132-0.917,2.049-2.049,2.049c-1.131,0-2.048-0.917-2.048-2.049
						s0.917-2.049,2.048-2.049C383.083,48.052,384,48.968,384,50.1z"/>
					<path style="fill:#FFFFFF;" d="M382.129,49.366c0,0.307-0.249,0.557-0.557,0.557c-0.307,0-0.556-0.25-0.556-0.557
						s0.249-0.557,0.556-0.557C381.88,48.809,382.129,49.06,382.129,49.366z"/>
					<path style="fill:#FFFFFF;" d="M381.016,50.535c0,0.141-0.115,0.256-0.256,0.256c-0.141,0-0.257-0.115-0.257-0.256
						c0-0.141,0.116-0.256,0.257-0.256C380.901,50.28,381.016,50.394,381.016,50.535z"/>
				</g>
				<path style="fill:#C9CACC;" d="M387.131,34.86c-1.084,0-2.126,0.176-3.105,0.494c-1.389,4.426-1.661,9.106-1.338,13.755
					c0.189,2.735,0.36,5.483,0.701,8.203c0.169,1.352,0.305,2.773,0.567,4.156c0.998,0.333,2.064,0.521,3.175,0.521
					c5.547,0,10.043-4.496,10.043-10.041v-7.047C397.174,39.356,392.678,34.86,387.131,34.86z"/>
			</g>
			<g>
				<path style="fill:#EBEBEC;" d="M446.028,51.949c0,5.545,4.496,10.041,10.043,10.041l0,0c5.545,0,10.042-4.496,10.042-10.041
					v-7.047c0-5.546-4.497-10.042-10.042-10.042l0,0c-5.547,0-10.043,4.496-10.043,10.042V51.949z"/>
				<path style="fill:#C7C8CA;" d="M447.028,51.597c0,4.993,4.049,9.042,9.043,9.042l0,0c4.994,0,9.043-4.049,9.043-9.042v-6.345
					c0-4.993-4.049-9.042-9.043-9.042l0,0c-4.994,0-9.043,4.049-9.043,9.042V51.597z"/>
				<g>
					<path style="fill:#2A416F;" d="M458.823,41.483c0,1.131,0.917,2.049,2.049,2.049c1.131,0,2.048-0.918,2.048-2.049
						s-0.917-2.048-2.048-2.048C459.74,39.435,458.823,40.352,458.823,41.483z"/>
					<path style="fill:#FFFFFF;" d="M460.694,40.749c0,0.307,0.249,0.556,0.557,0.556c0.307,0,0.556-0.249,0.556-0.556
						c0-0.308-0.249-0.556-0.556-0.556C460.943,40.193,460.694,40.441,460.694,40.749z"/>
					<path style="fill:#FFFFFF;" d="M461.806,41.919c0,0.14,0.115,0.256,0.256,0.256c0.141,0,0.256-0.116,0.256-0.256
						c0-0.142-0.115-0.256-0.256-0.256C461.921,41.663,461.806,41.777,461.806,41.919z"/>
				</g>
				<g>
					<path style="fill:#2A416F;" d="M459.202,50.1c0,1.132,0.917,2.049,2.049,2.049c1.131,0,2.048-0.917,2.048-2.049
						s-0.917-2.049-2.048-2.049C460.118,48.052,459.202,48.968,459.202,50.1z"/>
					<path style="fill:#FFFFFF;" d="M461.072,49.366c0,0.307,0.249,0.557,0.557,0.557c0.307,0,0.556-0.25,0.556-0.557
						s-0.249-0.557-0.556-0.557C461.321,48.809,461.072,49.06,461.072,49.366z"/>
					<path style="fill:#FFFFFF;" d="M462.185,50.535c0,0.141,0.115,0.256,0.256,0.256s0.256-0.115,0.256-0.256
						c0-0.141-0.115-0.256-0.256-0.256S462.185,50.394,462.185,50.535z"/>
				</g>
				<path style="fill:#C9CACC;" d="M456.071,34.86c1.084,0,2.126,0.176,3.105,0.494c1.389,4.426,1.66,9.106,1.337,13.755
					c-0.189,2.735-0.36,5.483-0.701,8.203c-0.169,1.352-0.305,2.773-0.566,4.156c-0.998,0.333-2.065,0.521-3.175,0.521
					c-5.547,0-10.043-4.496-10.043-10.041v-7.047C446.028,39.356,450.524,34.86,456.071,34.86z"/>
			</g>
			<g>
				<path style="fill:#EBEBEC;" d="M426.151,5.14c-1.544-0.188-3.138-0.292-4.783-0.303c-1.643,0.011-3.238,0.116-4.782,0.303
					c-20.287,2.465-31.841,19.525-31.841,36.805c0,19.609,2.262,27.628,20.055,33.236c3.857,1.216,10.318,2.439,16.89,2.156
					c6.573,0.283,12.39-0.94,16.246-2.156c17.793-5.608,20.055-13.626,20.055-33.236C457.992,24.666,446.437,7.605,426.151,5.14z"/>
				<path style="fill:#D9D9DB;" d="M386.857,60.994c2.432,6.785,7.52,10.902,17.944,14.187c3.857,1.216,10.318,2.439,16.89,2.156
					c6.573,0.283,12.39-0.94,16.246-2.156c11.109-3.501,16.164-7.942,18.394-15.557C434.253,51.763,408.886,53.097,386.857,60.994z"
					/>
				<path style="opacity:0.5;fill:#C9CACC;" d="M389.919,32.219c1.365,0.432,1.644-1.451,2.173-2.47
					c1.239-2.391,2.609-4.727,4.234-6.879c2.974-3.937,6.519-7.283,10.832-9.694c-0.819-1.559-1.878-2.934-3.015-4.253
					c-8.887,4.594-14.944,12.603-17.701,21.653C387.561,31.217,388.709,31.838,389.919,32.219z"/>
				<path style="opacity:0.5;fill:#C9CACC;" d="M447.093,23.421c0.932,1.662,1.811,3.348,2.635,5.058
					c0.036-0.03,0.072-0.063,0.11-0.093c1.406-1.142,2.857-2.224,4.276-3.346c-2.258-4.657-5.464-8.861-9.562-12.206
					c-0.968,1.074-1.955,2.132-2.919,3.205C443.611,18.361,445.562,20.694,447.093,23.421z"/>
				<path style="fill:#C9CACC;" d="M452.087,43.939c0,16.124-13.752,29.195-30.718,29.195c-16.965,0-30.718-13.07-30.718-29.195
					s13.752-29.196,30.718-29.196C438.334,14.744,452.087,27.815,452.087,43.939z"/>
				<g>
					<radialGradient id="SVGID_1_" cx="411.0837" cy="43.7232" r="37.4916" gradientUnits="userSpaceOnUse">
						<stop  offset="0.1486" style="stop-color:#21687E"/>
						<stop  offset="0.491" style="stop-color:#023F5F"/>
						<stop  offset="0.9801" style="stop-color:#000000"/>
					</radialGradient>
					<path style="fill:url(#SVGID_1_);" d="M450.23,42.175c0,15.149-12.922,27.43-28.861,27.43c-15.94,0-28.86-12.281-28.86-27.43
						c0-15.15,12.921-27.431,28.86-27.431C437.308,14.744,450.23,27.025,450.23,42.175z"/>
					
						<radialGradient id="SVGID_00000041286766390176857500000001906655962928325037_" cx="419.8927" cy="0.1177" r="74.9037" gradientUnits="userSpaceOnUse">
						<stop  offset="0.2849" style="stop-color:#21687E"/>
						<stop  offset="0.4225" style="stop-color:#0D3B59"/>
						<stop  offset="0.5885" style="stop-color:#05294A"/>
						<stop  offset="0.7076" style="stop-color:#031B31"/>
						<stop  offset="0.8978" style="stop-color:#01070D"/>
						<stop  offset="1" style="stop-color:#000000"/>
					</radialGradient>
					<path style="fill:url(#SVGID_00000041286766390176857500000001906655962928325037_);" d="M447.1,29.756
						c1.497,3.609,2.187,7.535,1.711,11.764c-1.107,9.811-8.769,17.522-18.013,20.192c-8.432,2.435-18.993,2.291-26.715-2.32
						c-11.728-7.003-12.712-21.192-6.953-32.098c-2.92,4.287-4.622,9.393-4.622,14.881c0,15.149,12.921,27.43,28.86,27.43
						c15.94,0,28.861-12.281,28.861-27.43C450.23,37.704,449.096,33.486,447.1,29.756z"/>
					
						<radialGradient id="SVGID_00000118398505083627133830000006933042321713858704_" cx="387.0341" cy="21.1453" r="47.0862" gradientUnits="userSpaceOnUse">
						<stop  offset="0.2851" style="stop-color:#FFFFFF"/>
						<stop  offset="0.6912" style="stop-color:#6C6C6C"/>
						<stop  offset="1" style="stop-color:#000000"/>
					</radialGradient>
					<path style="fill:url(#SVGID_00000118398505083627133830000006933042321713858704_);" d="M396.471,47.635
						c0.215,1.607,0.536,3.192,0.995,4.725c0.386,1.292,0.864,2.529,1.408,3.728c1.259,1.095,2.586,2.13,3.986,3.116
						c2.244,1.578,4.575,3.097,7.052,4.277c-2.362-3.753-3.962-8.026-4.75-12.425C402.215,50.019,399.261,49.008,396.471,47.635z"/>
					
						<radialGradient id="SVGID_00000173127488521098640550000006497053738639490439_" cx="387.0356" cy="21.1451" r="47.0858" gradientUnits="userSpaceOnUse">
						<stop  offset="0.2851" style="stop-color:#FFFFFF"/>
						<stop  offset="0.6912" style="stop-color:#6C6C6C"/>
						<stop  offset="1" style="stop-color:#000000"/>
					</radialGradient>
					<path style="fill:url(#SVGID_00000173127488521098640550000006497053738639490439_);" d="M419.414,17.105
						c-8.154,1.062-16.204,5.381-20.109,12.883c-2.192,4.213-3.21,9.064-3.135,13.881c2.599,1.058,5.353,1.866,7.984,2.687
						c0.164,0.051,0.331,0.102,0.495,0.153c-0.138-2.47-0.023-4.937,0.37-7.338c1.094-6.686,4.236-13.051,9.688-17.235
						c2.987-2.291,6.475-4.141,10.158-5.246C423.043,16.815,421.218,16.87,419.414,17.105z"/>
				</g>
			</g>
		</g>
		<path style="fill:#C6C8D0;" d="M441.725,87.464h-5.587h-29.614h-5.588c-5.536,0-6.441,4.274-7.103,7.672v19.687v15.431v0.569
			h0.113c0.663,3.286,1.759,7.104,6.99,7.104h5.588h29.614h5.587c5.231,0,6.328-3.818,6.991-7.104h0.113v-0.569v-15.431V95.135
			C448.168,91.738,447.261,87.464,441.725,87.464z"/>
		<path style="fill:#EBEBEC;" d="M440.791,88.265h-5.257h-27.867h-5.257c-5.209,0-6.061,4.022-6.684,7.219v18.526v14.52v0.535h0.106
			c0.623,3.093,1.656,6.685,6.578,6.685h5.257h27.867h5.257c4.922,0,5.954-3.592,6.578-6.685h0.106v-0.535v-14.52V95.484
			C446.853,92.287,446,88.265,440.791,88.265z"/>
		<g>
			<path style="fill:#C7C8CA;" d="M442.349,119.587h-1.216h-6.447h-1.216c-1.206,0-1.404,0.932-1.548,1.671v4.286v3.36v0.124h0.025
				c0.145,0.715,0.384,1.547,1.523,1.547h1.216h6.447h1.216c1.14,0,1.378-0.832,1.523-1.547h0.025v-0.124v-3.36v-4.286
				C443.753,120.519,443.555,119.587,442.349,119.587z"/>
			<path style="fill:#EBEBEC;" d="M441.748,120.121h-1.052h-5.576h-1.051c-1.043,0-1.214,0.805-1.338,1.445v3.707v2.904v0.108h0.021
				c0.125,0.619,0.332,1.338,1.317,1.338h1.051h5.576h1.052c0.985,0,1.192-0.719,1.317-1.338h0.021v-0.108v-2.904v-3.707
				C442.962,120.927,442.791,120.121,441.748,120.121z"/>
			<path style="fill:#EBEBEC;" d="M440.967,120.822h-0.838h-4.442h-0.837c-0.83,0-0.966,0.233-1.065,0.418v1.071v0.841v0.03h0.017
				c0.099,0.178,0.263,0.387,1.048,0.387h0.837h4.442h0.838c0.784,0,0.949-0.208,1.048-0.387h0.017v-0.03v-0.841v-1.071
				C441.934,121.055,441.797,120.822,440.967,120.822z"/>
			<path style="fill:#EBEBEC;" d="M440.809,91.919h-2.368h-12.552h-2.368c-0.534,0-2.084,0-2.618,0h-2.368h-12.552h-2.368
				c-2.347,0-2.731,1.17-3.011,2.098v5.384v4.219v0.157h0.047c0.281,0.898,0.746,1.942,2.964,1.942h2.368h12.552h2.368
				c0.532,0,2.086,0,2.618,0h2.368h12.552h2.368c2.218,0,2.683-1.044,2.964-1.942h0.047v-0.157v-4.219v-5.384
				C443.54,93.088,443.156,91.919,440.809,91.919z"/>
			<path style="fill:#C7C8CA;" d="M429.282,119.587h-1.216h-6.447h-1.216c-1.206,0-1.404,0.932-1.548,1.671v4.286v3.36v0.124h0.025
				c0.145,0.715,0.383,1.547,1.523,1.547h1.216h6.447h1.216c1.139,0,1.378-0.832,1.523-1.547h0.024v-0.124v-3.36v-4.286
				C430.686,120.519,430.488,119.587,429.282,119.587z"/>
			<path style="fill:#EBEBEC;" d="M428.681,120.121h-1.051h-5.576h-1.052c-1.043,0-1.214,0.805-1.337,1.445v3.707v2.904v0.108h0.021
				c0.125,0.619,0.332,1.338,1.317,1.338h1.052h5.576h1.051c0.985,0,1.192-0.719,1.317-1.338h0.021v-0.108v-2.904v-3.707
				C429.894,120.927,429.724,120.121,428.681,120.121z"/>
			<path style="fill:#EBEBEC;" d="M427.901,120.822h-0.838h-4.442h-0.837c-0.83,0-0.966,0.233-1.065,0.418v1.071v0.841v0.03h0.017
				c0.099,0.178,0.263,0.387,1.048,0.387h0.837h4.442h0.838c0.784,0,0.948-0.208,1.048-0.387h0.017v-0.03v-0.841v-1.071
				C428.867,121.055,428.731,120.822,427.901,120.822z"/>
			<g>
				<path style="fill:#D9D9DB;" d="M427.124,112.606c0,1.5-1.216,2.717-2.717,2.717l0,0c-1.5,0-2.717-1.216-2.717-2.717l0,0
					c0-1.502,1.216-2.718,2.717-2.718l0,0C425.908,109.888,427.124,111.104,427.124,112.606L427.124,112.606z"/>
				<path style="fill:#D9D9DB;" d="M434.638,112.606c0,1.5-1.216,2.717-2.717,2.717l0,0c-1.5,0-2.717-1.216-2.717-2.717l0,0
					c0-1.502,1.216-2.718,2.717-2.718l0,0C433.422,109.888,434.638,111.104,434.638,112.606L434.638,112.606z"/>
				<path style="fill:#D9D9DB;" d="M442.152,112.606c0,1.5-1.216,2.717-2.717,2.717l0,0c-1.5,0-2.717-1.216-2.717-2.717l0,0
					c0-1.502,1.216-2.718,2.717-2.718l0,0C440.935,109.888,442.152,111.104,442.152,112.606L442.152,112.606z"/>
			</g>
			<rect x="400.736" y="108.601" style="fill:#D9D9DB;" width="15.631" height="22.534"/>
			<g>
				<g>
					<rect x="401.961" y="110.557" style="fill:#EBEBEC;" width="4.098" height="4.097"/>
					<rect x="406.504" y="110.557" style="fill:#EBEBEC;" width="4.097" height="4.097"/>
					<rect x="411.045" y="110.557" style="fill:#EBEBEC;" width="4.098" height="4.097"/>
					<rect x="401.961" y="115.37" style="fill:#EBEBEC;" width="4.098" height="4.096"/>
					<rect x="406.504" y="115.37" style="fill:#EBEBEC;" width="4.097" height="4.096"/>
					<rect x="411.045" y="115.37" style="fill:#EBEBEC;" width="4.098" height="4.096"/>
				</g>
				<g>
					<rect x="401.961" y="120.268" style="fill:#EBEBEC;" width="4.098" height="4.098"/>
					<rect x="406.504" y="120.268" style="fill:#EBEBEC;" width="4.097" height="4.098"/>
					<rect x="411.045" y="120.268" style="fill:#EBEBEC;" width="4.098" height="4.098"/>
					<rect x="401.961" y="125.081" style="fill:#EBEBEC;" width="4.098" height="4.098"/>
					<rect x="406.504" y="125.081" style="fill:#EBEBEC;" width="4.097" height="4.098"/>
					<rect x="411.045" y="125.081" style="fill:#EBEBEC;" width="4.098" height="4.098"/>
				</g>
			</g>
			
				<linearGradient id="SVGID_00000129180840233355257060000014414481084136182712_" gradientUnits="userSpaceOnUse" x1="426.3185" y1="88.3369" x2="426.3185" y2="107.5843">
				<stop  offset="0.1486" style="stop-color:#21687E"/>
				<stop  offset="0.491" style="stop-color:#023F5F"/>
				<stop  offset="0.9801" style="stop-color:#000000"/>
			</linearGradient>
			<path style="fill:url(#SVGID_00000129180840233355257060000014414481084136182712_);" d="M440.439,93.579h-1.798h-9.53h-1.799
				c-0.405,0-1.581,0-1.987,0h-1.798h-9.53h-1.799c-1.781,0-2.073,0.889-2.286,1.594v4.088v3.204v0.119h0.037
				c0.212,0.682,0.566,1.475,2.249,1.475h1.799h9.53h1.798c0.404,0,1.584,0,1.987,0h1.799h9.53h1.798
				c1.684,0,2.037-0.793,2.251-1.475h0.036v-0.119v-3.204v-4.088C442.513,94.468,442.222,93.579,440.439,93.579z"/>
			<path style="fill:#6B6C6F;" d="M425.239,98.818c4.088-0.087,8.224-0.382,12.189-1.446c1.381-0.371,2.889-0.773,4.252-1.4v-0.566
				c-0.2-0.661-0.473-1.492-2.141-1.492h-26.443c-1.668,0-1.942,0.831-2.141,1.492v0.733
				C414.79,99.067,420.687,98.915,425.239,98.818z"/>
		</g>
		<g>
			<path style="fill:#BEBFC1;" d="M418.265,230.019c-0.483-4.203-2.768-8.745-6.578-10.857c-5.668-3.143-13.08,0.712-17.018,4.913
				c-2.392,2.553-4.048,5.322-5.131,8.645c-0.495,1.516-0.853,3.077-1.21,4.634c-0.391,1.118-0.783,2.237-1.153,3.365
				c-0.945,2.895-1.487,5.915-2.054,8.902c-0.917,4.834-1.608,9.986-0.307,14.813c2.374,8.813,13.649,10.715,20.586,6.318
				c3.591-2.275,6.006-6.008,7.597-9.863c0.962-2.33,1.571-4.803,2.138-7.251c0.694-2.998,1.503-5.956,2.079-8.983
				C418.12,239.912,418.82,234.844,418.265,230.019z"/>
			<path style="fill:#EBEBEC;" d="M408.61,238.48c4.224-2.828,7.428-6.926,8.447-11.988c0.047-0.237,0.079-0.474,0.119-0.711
				c-1.104-2.737-2.957-5.215-5.488-6.618c-5.668-3.143-13.08,0.712-17.018,4.913c-2.392,2.553-4.048,5.322-5.131,8.645
				c-0.244,0.748-0.455,1.507-0.648,2.27C393.441,241.224,401.702,243.103,408.61,238.48z"/>
			<path style="fill:#EBEBEC;" d="M397.794,248.287c-4.16-0.296-8.792-0.179-12.685,1.402c-0.909,4.815-1.588,9.941-0.294,14.746
				c2.374,8.813,13.649,10.715,20.586,6.318c3.591-2.275,6.006-6.008,7.597-9.863c0.714-1.73,1.233-3.537,1.685-5.356
				C409.827,251.549,404.417,248.76,397.794,248.287z"/>
			<path style="fill:#D9D9DB;" d="M418.265,230.019c-0.483-4.203-2.768-8.745-6.578-10.857c-0.885-0.491-1.812-0.812-2.762-0.986
				c3.01,1.519,5.358,4.406,6.572,8.038c2.391,7.147,0.231,15.498-1.966,22.455c-2.496,7.902-6.798,15.517-15.092,18.362
				c-3.48,1.195-8.222,1.831-11.253-0.827c-1.514-1.329-2.339-3.079-2.947-4.931c0.112,1.065,0.296,2.121,0.576,3.162
				c2.374,8.813,13.649,10.715,20.586,6.318c3.591-2.275,6.006-6.008,7.597-9.863c0.962-2.33,1.571-4.803,2.138-7.251
				c0.694-2.998,1.503-5.956,2.079-8.983C418.12,239.912,418.82,234.844,418.265,230.019z"/>
			<path style="fill:#D9D9DB;" d="M405.167,237.12c3.263-1.351,6.368-3.545,7.821-6.879c0.565-1.297,0.888-2.637,1.057-3.999
				c-0.034-0.242-0.077-0.481-0.132-0.719c-6.13-26.229-8.951-26.606-4.798-35.828c4.152-9.224,11.312-22.985,9.01-26.239
				c-7.372-10.429-26.131-16.596-26.131-16.596s-7.193-1.248-8.952,1.148c-1.76,2.396-14.498,31.231-11.331,46.946
				c2.543,12.617,13.815,32.434,18.162,39.76C393.627,238.762,399.832,239.329,405.167,237.12z"/>
			<path style="fill:#EBEBEC;" d="M384.096,197.407c5.44-0.443,10.706-4.702,9.303-10.724c-1.841-7.894-13.273-12.545-20.745-9.444
				c-1.347,6.384-1.951,12.713-0.943,17.715c0.006,0.031,0.014,0.063,0.021,0.095C375.61,196.708,379.986,197.742,384.096,197.407z"
				/>
			<path style="fill:#D9D9DB;" d="M380.144,194.176c3.772-0.308,7.423-3.261,6.449-7.436c-1.275-5.472-9.201-8.697-14.381-6.548
				c-0.934,4.427-1.353,8.814-0.654,12.282c0.004,0.022,0.01,0.044,0.013,0.065C374.259,193.691,377.294,194.408,380.144,194.176z"
				/>
			<path style="fill:#EBEBEC;" d="M392.195,171.576c7.167,2.013,15.133,5.643,19.891,11.69c3.822-8.226,7.847-17.255,6.04-19.811
				c-7.372-10.429-26.131-16.596-26.131-16.596s-7.193-1.248-8.952,1.148c-1.027,1.398-5.788,11.792-8.95,23.329
				C379.726,169.201,386.63,170.014,392.195,171.576z"/>
			<path style="fill:#EBEBEC;" d="M391.105,211.83c4.275-0.474,8.427-2.011,11.869-4.621c1.485-1.125,3.585-2.753,4.99-4.626
				c-0.839-3.5-1.063-5.741-0.512-8.238c-5.784,3.279-13.071,4.418-19.432,4.651c-4.774,0.174-11.725-0.028-16.102-3.084
				c0.736,3.215,1.985,6.843,3.509,10.583C379.46,210.675,384.968,212.51,391.105,211.83z"/>
			<path style="fill:#FFFFFF;" d="M391.26,201.626c5.751-0.766,11.766-2.938,16.123-6.9c0.025-0.127,0.042-0.252,0.07-0.381
				c-5.784,3.279-13.071,4.418-19.432,4.651c-4.774,0.174-11.725-0.028-16.102-3.084c0.278,1.22,0.633,2.5,1.048,3.822
				C378.252,202.556,385.749,202.36,391.26,201.626z"/>
			<path style="opacity:0.5;fill:#D9D9DB;" d="M409.115,189.694c4.152-9.224,11.312-22.985,9.01-26.239
				c-7.372-10.429-26.131-16.596-26.131-16.596s-2.902-0.502-5.471-0.256c0.915,0.071,1.861,0.274,2.81,0.604
				c3.373,1.172,6.472,3.117,9.217,5.384c2.284,1.885,5.11,4.291,5.946,7.276c1.42,5.075-2.111,10.838-4.139,15.314
				c-2.738,6.046-5.455,12.923-5.712,19.641c-0.25,6.57,2.23,12.988,4.859,18.898c1.298,2.918,2.686,5.793,4.028,8.691
				c1.067,2.305,2.51,4.649,3.156,7.118c1.059,4.04-0.665,6.61-3.437,8.251c0.646-0.182,1.286-0.4,1.915-0.66
				c3.263-1.351,6.368-3.545,7.821-6.879c0.565-1.297,0.888-2.637,1.057-3.999c-0.034-0.242-0.077-0.481-0.132-0.719
				C407.783,199.294,404.962,198.917,409.115,189.694z"/>
			<path style="opacity:0.5;fill:#EBEBEC;" d="M385.423,149.257c0,0-14.945,31.473-12.47,44.356
				c2.475,12.883,18.169,39.726,18.169,39.726s-15.318-30.601-16.21-42.623c-0.892-12.023,17.595-38.134,17.595-38.134
				L385.423,149.257z"/>
			<path style="fill:#FFFFFF;" d="M406.837,245.656c-0.138,0-0.278-0.022-0.417-0.067c-11.255-3.691-17.146-0.474-17.203-0.441
				c-0.642,0.364-1.458,0.138-1.821-0.504c-0.364-0.642-0.138-1.457,0.504-1.821c0.279-0.159,6.987-3.831,19.353,0.227
				c0.701,0.229,1.084,0.984,0.853,1.686C407.921,245.298,407.398,245.656,406.837,245.656z"/>
			<path style="fill:#FFFFFF;" d="M406.128,251.597c-0.158,0-0.318-0.027-0.475-0.088c-11.589-4.409-18.004-1.101-18.067-1.067
				c-0.651,0.349-1.46,0.104-1.808-0.548c-0.348-0.65-0.102-1.461,0.548-1.807c0.303-0.163,7.563-3.912,20.278,0.925
				c0.689,0.262,1.035,1.034,0.774,1.724C407.175,251.268,406.667,251.597,406.128,251.597z"/>
		</g>
		<g>
			<path style="fill:#BEBFC1;" d="M426.503,244.656c0.576,3.027,1.385,5.985,2.078,8.983c0.567,2.449,1.177,4.921,2.139,7.251
				c1.591,3.855,4.005,7.588,7.597,9.863c6.936,4.397,18.212,2.495,20.586-6.318c1.3-4.827,0.609-9.979-0.307-14.813
				c-0.566-2.988-1.11-6.008-2.055-8.902c-0.368-1.127-0.761-2.247-1.153-3.365c-0.357-1.557-0.715-3.118-1.209-4.634
				c-1.084-3.323-2.741-6.092-5.132-8.645c-3.937-4.201-11.348-8.056-17.018-4.913c-3.808,2.112-6.093,6.654-6.576,10.857
				C424.897,234.844,425.598,239.912,426.503,244.656z"/>
			<path style="fill:#EBEBEC;" d="M435.108,238.48c-4.223-2.828-7.428-6.926-8.447-11.988c-0.048-0.237-0.079-0.474-0.119-0.711
				c1.104-2.737,2.957-5.215,5.488-6.618c5.67-3.143,13.082,0.712,17.018,4.913c2.391,2.553,4.049,5.322,5.132,8.645
				c0.242,0.748,0.453,1.507,0.648,2.27C450.277,241.224,442.015,243.103,435.108,238.48z"/>
			<path style="fill:#EBEBEC;" d="M445.924,248.287c4.16-0.296,8.792-0.179,12.684,1.402c0.911,4.815,1.589,9.941,0.295,14.746
				c-2.374,8.813-13.65,10.715-20.586,6.318c-3.592-2.275-6.006-6.008-7.597-9.863c-0.714-1.73-1.233-3.537-1.686-5.356
				C433.892,251.549,439.3,248.76,445.924,248.287z"/>
			<path style="fill:#D9D9DB;" d="M425.453,230.019c0.483-4.203,2.768-8.745,6.576-10.857c0.886-0.491,1.813-0.812,2.764-0.986
				c-3.01,1.519-5.358,4.406-6.573,8.038c-2.392,7.147-0.231,15.498,1.967,22.455c2.496,7.902,6.798,15.517,15.093,18.362
				c3.48,1.195,8.222,1.831,11.252-0.827c1.514-1.329,2.339-3.079,2.948-4.931c-0.113,1.065-0.296,2.121-0.576,3.162
				c-2.374,8.813-13.65,10.715-20.586,6.318c-3.592-2.275-6.006-6.008-7.597-9.863c-0.962-2.33-1.572-4.803-2.139-7.251
				c-0.693-2.998-1.502-5.956-2.078-8.983C425.598,239.912,424.897,234.844,425.453,230.019z"/>
			<path style="fill:#D9D9DB;" d="M438.552,237.12c-3.264-1.351-6.368-3.545-7.821-6.879c-0.566-1.297-0.89-2.637-1.057-3.999
				c0.034-0.242,0.076-0.481,0.131-0.719c6.131-26.229,8.95-26.606,4.798-35.828c-4.152-9.224-11.311-22.985-9.009-26.239
				c7.372-10.429,26.13-16.596,26.13-16.596s7.193-1.248,8.953,1.148c1.76,2.396,14.497,31.231,11.33,46.946
				c-2.542,12.617-13.815,32.434-18.162,39.76C450.092,238.762,443.887,239.329,438.552,237.12z"/>
			<path style="fill:#EBEBEC;" d="M459.621,197.407c-5.439-0.443-10.706-4.702-9.302-10.724c1.84-7.894,13.272-12.545,20.744-9.444
				c1.347,6.384,1.951,12.713,0.943,17.715c-0.007,0.031-0.014,0.063-0.021,0.095C468.108,196.708,463.732,197.742,459.621,197.407z
				"/>
			<path style="fill:#D9D9DB;" d="M463.574,194.176c-3.771-0.308-7.422-3.261-6.45-7.436c1.276-5.472,9.202-8.697,14.383-6.548
				c0.934,4.427,1.353,8.814,0.654,12.282c-0.004,0.022-0.009,0.044-0.014,0.065C469.458,193.691,466.424,194.408,463.574,194.176z"
				/>
			<path style="fill:#EBEBEC;" d="M451.523,171.576c-7.166,2.013-15.133,5.643-19.89,11.69c-3.823-8.226-7.847-17.255-6.04-19.811
				c7.372-10.429,26.13-16.596,26.13-16.596s7.193-1.248,8.953,1.148c1.026,1.398,5.787,11.792,8.948,23.329
				C463.992,169.201,457.086,170.014,451.523,171.576z"/>
			<path style="fill:#EBEBEC;" d="M452.612,211.83c-4.275-0.474-8.427-2.011-11.869-4.621c-1.484-1.125-3.585-2.753-4.989-4.626
				c0.839-3.5,1.063-5.741,0.511-8.238c5.785,3.279,13.071,4.418,19.433,4.651c4.773,0.174,11.724-0.028,16.102-3.084
				c-0.737,3.215-1.986,6.843-3.509,10.583C464.257,210.675,458.75,212.51,452.612,211.83z"/>
			<path style="fill:#FFFFFF;" d="M452.458,201.626c-5.751-0.766-11.765-2.938-16.122-6.9c-0.025-0.127-0.042-0.252-0.071-0.381
				c5.785,3.279,13.071,4.418,19.433,4.651c4.773,0.174,11.724-0.028,16.102-3.084c-0.28,1.22-0.634,2.5-1.048,3.822
				C465.466,202.556,457.969,202.36,452.458,201.626z"/>
			<path style="opacity:0.5;fill:#D9D9DB;" d="M434.603,189.694c-4.152-9.224-11.311-22.985-9.009-26.239
				c7.372-10.429,26.13-16.596,26.13-16.596s2.902-0.502,5.471-0.256c-0.914,0.071-1.859,0.274-2.809,0.604
				c-3.374,1.172-6.472,3.117-9.217,5.384c-2.285,1.885-5.111,4.291-5.947,7.276c-1.419,5.075,2.112,10.838,4.139,15.314
				c2.738,6.046,5.455,12.923,5.711,19.641c0.252,6.57-2.229,12.988-4.859,18.898c-1.299,2.918-2.686,5.793-4.027,8.691
				c-1.067,2.305-2.51,4.649-3.158,7.118c-1.057,4.04,0.667,6.61,3.439,8.251c-0.647-0.182-1.287-0.4-1.915-0.66
				c-3.264-1.351-6.368-3.545-7.821-6.879c-0.566-1.297-0.89-2.637-1.057-3.999c0.034-0.242,0.076-0.481,0.131-0.719
				C435.936,199.294,438.755,198.917,434.603,189.694z"/>
			<path style="opacity:0.5;fill:#EBEBEC;" d="M458.295,149.257c0,0,14.945,31.473,12.47,44.356
				c-2.474,12.883-18.171,39.726-18.171,39.726s15.319-30.601,16.211-42.623c0.892-12.023-17.595-38.134-17.595-38.134
				L458.295,149.257z"/>
			<path style="fill:#FFFFFF;" d="M436.881,245.656c0.138,0,0.278-0.022,0.417-0.067c11.255-3.691,17.146-0.474,17.204-0.441
				c0.642,0.364,1.457,0.138,1.821-0.504c0.364-0.642,0.137-1.457-0.504-1.821c-0.28-0.159-6.987-3.831-19.354,0.227
				c-0.701,0.229-1.083,0.984-0.854,1.686C435.797,245.298,436.32,245.656,436.881,245.656z"/>
			<path style="fill:#FFFFFF;" d="M437.59,251.597c0.158,0,0.318-0.027,0.475-0.088c11.589-4.409,18.004-1.101,18.066-1.067
				c0.651,0.349,1.461,0.104,1.808-0.548c0.348-0.65,0.103-1.461-0.548-1.807c-0.302-0.163-7.562-3.912-20.277,0.925
				c-0.69,0.262-1.035,1.034-0.773,1.724C436.544,251.268,437.052,251.597,437.59,251.597z"/>
		</g>
		<path style="fill:#EBEBEC;" d="M390.785,138.08c0,0-3.294-34.203-0.979-46.762c0,0,0.949-6.547,4.706-7.749
			c3.755-1.202,22.529,1.333,22.529,1.333l-19.105,0.719c0,0-5.015,0.328-5.985,8.017
			C390.895,101.992,391.582,101.356,390.785,138.08z"/>
		<path style="fill:#EBEBEC;" d="M451.66,138.08c0,0,3.296-34.203,0.979-46.762c0,0-0.948-6.547-4.704-7.749
			c-3.757-1.202-22.53,1.333-22.53,1.333l19.105,0.719c0,0,5.015,0.328,5.986,8.017C451.55,101.992,450.865,101.356,451.66,138.08z"
			/>
	</g>
</g>
</svg>
