<?xml version="1.0" encoding="utf-8"?>
<!-- Generator: Adobe Illustrator 27.5.0, SVG Export Plug-In . SVG Version: 6.00 Build 0)  -->
<svg version="1.1" id="Capa_2" xmlns="http://www.w3.org/2000/svg" xmlns:xlink="http://www.w3.org/1999/xlink" x="0px" y="0px"
	 viewBox="0 0 2122 2122" style="enable-background:new 0 0 2122 2122;" xml:space="preserve">
<path style="fill:#47BEED;" d="M1280.742,1670.478c0-38.636-197.554-39.751-220.083-39.751c-22.524,0-220.078,1.116-220.078,39.751
	c0,38.639,197.554,39.754,220.078,39.754C1083.188,1710.232,1280.742,1709.116,1280.742,1670.478z M1060.659,1695.265
	c-119.245,0-194.942-14.346-204.624-24.787c9.681-10.439,85.379-24.784,204.624-24.784c119.249,0,194.947,14.345,204.628,24.784
	C1255.606,1680.919,1179.908,1695.265,1060.659,1695.265z"/>
<path style="fill:#47BEED;" d="M1206.652,1793.837c0-31.444-95.498-39.754-145.993-39.754c-50.494,0-145.993,8.31-145.993,39.754
	s95.498,39.752,145.993,39.752C1111.154,1833.589,1206.652,1825.281,1206.652,1793.837z M1060.659,1818.622
	c-86.446,0-131.025-17.372-131.025-24.784c0-7.413,44.579-24.787,131.025-24.787c86.445,0,131.025,17.374,131.025,24.787
	C1191.684,1801.25,1147.104,1818.622,1060.659,1818.622z"/>
<path style="fill:#47BEED;" d="M968.06,1909.572c0,22.076,48,32.129,92.599,32.129c44.599,0,92.599-10.053,92.599-32.129
	c0-22.075-48-32.129-92.599-32.129C1016.06,1877.442,968.06,1887.496,968.06,1909.572z M1138.291,1909.572
	c-0.911,5.152-28.316,17.162-77.632,17.162c-49.383,0-76.799-12.046-77.632-17.14c0.829-5.138,28.239-17.184,77.632-17.184
	C1109.984,1892.409,1137.385,1904.419,1138.291,1909.572z"/>
<path style="fill:#B3B3B3;" d="M1717.173,1322.075c55.2-28.893-78.904-377.977-173.928-559.513
	c-6.884-13.152-16.016-24.354-26.652-33.439c-12.776,110.269-34.141,218.881-62.512,319.656
	C1556.194,1198.88,1678.345,1342.399,1717.173,1322.075z"/>
<path style="fill:#A7A7A7;" d="M404.146,1322.075c38.942,20.384,161.696-124.042,263.991-274.623
	c-28.554-100.883-50.111-209.259-63.061-318.631c-10.787,9.137-20.041,20.444-27.001,33.74
	C483.051,944.098,348.947,1293.182,404.146,1322.075z"/>
<path style="fill:#E4E3E3;" d="M909.186,345.172C909.186,345.172,909.186,345.172,909.186,345.172l312.157,0.001
	c105.423,0,190.885,91.117,190.885,203.516l0,0c0,89.041-53.654,164.673-128.354,192.286c-0.137,0.05-0.274,0.098-0.411,0.148
	c-6.636,2.435-13.432,4.49-20.376,6.142c-0.709,0.17-1.41,0.361-2.122,0.522c-1.525,0.343-3.065,0.636-4.603,0.94
	c-1.407,0.28-2.813,0.559-4.23,0.805c-1.367,0.237-2.74,0.447-4.115,0.652c-1.653,0.247-3.312,0.472-4.978,0.674
	c-1.242,0.15-2.483,0.296-3.731,0.421c-1.933,0.193-3.878,0.341-5.828,0.472c-1.028,0.069-2.05,0.157-3.082,0.209
	c-3.002,0.15-6.018,0.244-9.055,0.244H899.978c-2.826,0-5.631-0.097-8.427-0.227c2.078,40.172,5.371,80.255,10.016,120.138
	c14.498,124.495,43.251,248.615,91.904,364.369c40.53,96.43,99.673,198.905,191.627,254.547
	c9.979,6.039,19.975,11.375,30.041,16.065c98.858-89.469,182.661-258.407,238.942-458.318
	c28.37-100.775,49.736-209.387,62.512-319.656c8.912-76.929,13.673-154.647,13.673-231.055
	c0-175.874-210.25-318.448-469.606-318.448c-40.714,0-80.215,3.517-117.885,10.121c-15.486,50.659-26.162,102.812-33.822,155.431
	H909.186z M1060.66,1110.401c-32.109,0-58.139-26.029-58.139-58.139c0-32.108,26.03-58.138,58.139-58.138
	c32.109,0,58.139,26.03,58.139,58.138C1118.799,1084.371,1092.769,1110.401,1060.66,1110.401z M1235.884,1443.997
	c-17.338,7.32-37.328-0.799-44.649-18.138c-7.321-17.338,0.799-37.328,18.137-44.649c17.338-7.321,37.329,0.799,44.65,18.138
	C1261.343,1416.686,1253.222,1436.676,1235.884,1443.997z M1326.478,1295.466c-19.615,48.286-62.955,76.284-96.802,62.534
	c-33.848-13.749-45.386-64.039-25.771-112.326c19.615-48.286,62.955-76.283,96.802-62.533
	C1334.554,1196.89,1346.092,1247.18,1326.478,1295.466z"/>
<path style="fill:#B3B3B3;" d="M1060.66,1575.699c3.75,0,7.487-0.147,11.217-0.383c1.239-0.079,2.473-0.214,3.71-0.318
	c2.484-0.21,4.964-0.448,7.438-0.76c1.478-0.187,2.952-0.407,4.426-0.631c2.226-0.337,4.448-0.714,6.665-1.134
	c1.565-0.296,3.13-0.597,4.69-0.934c2.13-0.46,4.253-0.98,6.374-1.515c1.587-0.4,3.176-0.774,4.758-1.216
	c2.176-0.608,4.341-1.3,6.508-1.986c3.088-0.977,6.166-2.034,9.235-3.168c1.682-0.621,3.367-1.21,5.043-1.878
	c2.131-0.849,4.252-1.781,6.374-2.705c1.355-0.59,2.714-1.167,4.065-1.787c2.233-1.025,4.458-2.103,6.679-3.209
	c1.17-0.583,2.339-1.173,3.507-1.778c2.365-1.226,4.725-2.482,7.078-3.799c0.852-0.477,1.7-0.976,2.55-1.464
	c12.11-6.963,24.051-15.09,35.793-24.371c0.027-0.022,0.056-0.043,0.084-0.065c2.948-2.331,5.881-4.741,8.804-7.212
	c0.233-0.197,0.464-0.392,0.697-0.59c2.939-2.498,5.868-5.059,8.782-7.696c0.001-0.001,0.003-0.002,0.004-0.004l0,0
	c-10.066-4.691-20.063-10.026-30.041-16.065c-91.954-55.642-151.097-158.118-191.627-254.547
	c-48.653-115.754-77.406-239.874-91.904-364.369c-4.645-39.883-7.938-79.966-10.016-120.138c-13.501-0.626-26.647-2.715-39.278-6.18
	c-6.1-1.673-12.08-3.659-17.928-5.942c-2.924-1.142-5.814-2.357-8.669-3.644c-4.413-1.991-8.713-4.204-12.949-6.53
	c-4.851-2.664-9.583-5.534-14.181-8.616c-3.745-2.51-7.404-5.147-10.968-7.92c-4.355-3.389-8.557-6.979-12.621-10.739
	c-14.95-13.833-27.898-30.06-38.229-48.187c-3.865-6.781-7.319-13.85-10.433-21.121c-2.024-4.727-3.933-9.522-5.62-14.434
	c-1.071-3.117-2.071-6.27-3.001-9.456c-1.658-5.683-3.05-11.488-4.243-17.372c-2.148-10.612-3.56-21.517-4.09-32.674
	c-0.165-3.468-0.249-6.96-0.249-10.473l0,0c0-14.05,1.336-27.767,3.878-41.015c1.271-6.624,2.845-13.132,4.704-19.504
	c0.93-3.186,1.93-6.339,3.001-9.456c26.763-77.927,96.94-133.54,179.303-133.54h8.975c7.66-52.619,18.336-104.772,33.822-155.431
	l0,0c-0.006,0.001-0.012,0.003-0.018,0.003c-5.854,1.027-11.653,2.145-17.416,3.319c-0.715,0.146-1.433,0.285-2.146,0.433
	c-5.556,1.152-11.063,2.376-16.528,3.662c-0.867,0.204-1.73,0.413-2.595,0.62c-5.548,1.331-11.058,2.715-16.508,4.18
	c-0.265,0.072-0.527,0.148-0.792,0.219c-5.401,1.461-10.745,2.994-16.044,4.585c-0.565,0.17-1.135,0.333-1.699,0.504
	c-5.262,1.597-10.466,3.266-15.624,4.989c-0.828,0.276-1.653,0.555-2.478,0.835c-5.167,1.752-10.29,3.556-15.346,5.432
	c-0.426,0.158-0.845,0.323-1.271,0.481c-4.998,1.868-9.943,3.797-14.828,5.783c-0.405,0.165-0.814,0.323-1.217,0.488
	c-4.92,2.014-9.768,4.098-14.568,6.23c-0.776,0.345-1.551,0.689-2.323,1.037c-4.74,2.132-9.425,4.315-14.042,6.56
	c-0.544,0.264-1.079,0.536-1.621,0.802c-4.616,2.264-9.178,4.577-13.665,6.952c-0.218,0.115-0.44,0.226-0.657,0.341
	c-4.53,2.405-8.978,4.879-13.373,7.393c-0.71,0.406-1.42,0.811-2.127,1.219c-4.277,2.477-8.492,5.002-12.635,7.579
	c-0.596,0.371-1.181,0.747-1.774,1.12c-4.26,2.678-8.465,5.395-12.576,8.178c-0.013,0.008-0.026,0.016-0.038,0.025
	c-4.098,2.774-8.099,5.613-12.045,8.488c-0.622,0.452-1.247,0.902-1.864,1.357c-3.785,2.791-7.498,5.628-11.136,8.509
	c-0.592,0.469-1.175,0.942-1.764,1.414c-3.74,2.998-7.425,6.03-11.003,9.121c-0.005,0.005-0.01,0.01-0.016,0.014
	c-3.573,3.086-7.039,6.231-10.445,9.408c-0.516,0.481-1.039,0.959-1.552,1.442c-3.255,3.073-6.428,6.188-9.523,9.341
	c-0.557,0.567-1.106,1.137-1.657,1.707c-3.132,3.235-6.201,6.5-9.162,9.815c-0.179,0.199-0.349,0.403-0.526,0.603
	c-2.873,3.232-5.65,6.507-8.356,9.813c-0.402,0.492-0.815,0.979-1.213,1.472c-2.691,3.328-5.286,6.697-7.805,10.096
	c-0.477,0.644-0.949,1.291-1.42,1.938c-2.507,3.442-4.943,6.913-7.271,10.424c-0.253,0.383-0.492,0.771-0.744,1.154
	c-2.223,3.391-4.358,6.814-6.41,10.265c-0.273,0.459-0.558,0.914-0.827,1.373c-2.089,3.562-4.068,7.161-5.971,10.785
	c-0.374,0.712-0.744,1.424-1.11,2.138c-1.859,3.624-3.64,7.273-5.31,10.955c-0.239,0.527-0.46,1.058-0.695,1.586
	c-1.596,3.587-3.108,7.197-4.521,10.836c-0.148,0.381-0.309,0.758-0.455,1.14c-1.445,3.779-2.766,7.592-4.01,11.425
	c-0.243,0.751-0.488,1.501-0.724,2.255c-1.187,3.79-2.284,7.603-3.27,11.441c-0.164,0.635-0.309,1.273-0.467,1.908
	c-0.95,3.837-1.817,7.693-2.564,11.574c-0.045,0.235-0.1,0.467-0.144,0.701c-0.753,3.986-1.365,8.001-1.898,12.032
	c-0.101,0.762-0.207,1.523-0.3,2.286c-0.478,3.931-0.854,7.881-1.12,11.852c-0.049,0.731-0.081,1.463-0.123,2.195
	c-0.236,4.145-0.393,8.305-0.393,12.489c0,75.864,4.881,153.549,14.022,230.754c12.95,109.371,34.507,217.748,63.061,318.631
	C752.094,1344.071,896.53,1575.699,1060.66,1575.699z"/>
<path style="fill:#617D8B;" d="M1265.075,708.477c24.298,2.199,48.383,2.596,72.345,1.578
	c45.44-37.186,74.807-95.569,74.807-161.367c0-112.398-85.463-203.516-190.885-203.516H909.186
	c-2.113,10.884-3.628,21.965-4.524,33.118c4.021-0.283,8.066-0.478,12.16-0.478h287.678c94.372,0,170.877,76.504,170.877,170.876
	C1375.376,621.724,1329.538,684.024,1265.075,708.477z"/>
<path style="fill:#223466;" d="M1375.376,548.688L1375.376,548.688c0-94.372-76.504-170.876-170.876-170.876H916.821
	c-4.094,0-8.139,0.195-12.159,0.478c-0.933,11.615-1.192,23.307-0.674,34.946c-0.066,1.961-0.061,3.918-0.101,5.878
	c-0.059,2.887-0.147,5.775-0.146,8.658c0.001,2.047,0.084,4.089,0.118,6.133c0.045,2.763,0.054,5.528,0.162,8.286
	c0.091,2.329,0.282,4.651,0.421,6.977c0.148,2.47,0.245,4.945,0.449,7.41c0.099,1.196,0.268,2.387,0.381,3.582
	c21.175,3.462,37.351,21.791,37.351,43.945c0,14.319-6.778,27.028-17.271,35.185c27.548,59.909,84.606,101.773,143.957,127.225
	c57.781,24.778,121.897,33.627,183.889,40.852c3.971,0.463,7.92,0.751,11.877,1.11
	C1329.538,684.024,1375.376,621.724,1375.376,548.688z M1118.625,579.092c-1.06,15.649-8.203,30.785-20.358,40.876
	c-24.709,20.512-62.536,17.633-82.792-7.824c-8.497-10.678-12.814-23.538-12.892-37.163c-0.041-7.206,0-14.412,0-21.617
	c0-16.419,0-32.838,0-49.258c0-12.059,18.709-12.039,18.709,0c0,17.154,0,34.308,0,51.461c0,16.524-1.889,33.76,10.447,46.907
	c18.091,19.281,50.271,15.559,63.301-7.531c7.679-13.608,4.99-32.265,4.99-47.305c0-14.511,0-29.022,0-43.533
	c0-12.059,18.709-12.039,18.709,0c0,18.889,0,37.78,0,56.67C1118.737,566.852,1119.036,573.022,1118.625,579.092z M1223.281,548.688
	c-24.622,0-44.582-19.96-44.582-44.582c0-24.622,19.96-44.583,44.582-44.583c24.622,0,44.583,19.961,44.583,44.583
	C1267.864,528.728,1247.903,548.688,1223.281,548.688z"/>
<path style="fill:#3D5F6B;" d="M1265.075,708.477l-0.25,0.058c-18.762,7.094-39.075,11.029-60.325,11.029H916.821
	c-47.186,0-89.906-19.126-120.828-50.048c-1.932-1.933-3.819-3.911-5.658-5.934c-11.032-12.138-20.341-25.871-27.539-40.811
	c-2.401-4.98-4.566-10.094-6.482-15.329c-1.916-5.235-3.584-10.589-4.989-16.049c-3.512-13.65-5.38-27.958-5.38-42.705
	c0-90.264,70.003-164.13,158.672-170.394l0.045-0.003c0.896-11.153,2.411-22.234,4.524-33.118c0-0.001,0-0.001,0-0.001h-0.233
	h-8.975c-82.362,0-152.54,55.614-179.303,133.54c-1.071,3.117-2.071,6.27-3.001,9.456c-1.859,6.372-3.432,12.88-4.704,19.504
	c-2.542,13.248-3.878,26.965-3.878,41.015c0,3.513,0.083,7.005,0.249,10.473c0.53,11.158,1.942,22.062,4.09,32.674
	c1.193,5.885,2.585,11.689,4.243,17.372c0.93,3.187,1.93,6.34,3.001,9.456c1.687,4.913,3.596,9.708,5.62,14.434
	c3.113,7.271,6.568,14.34,10.433,21.121c10.331,18.127,23.279,34.354,38.229,48.187c4.065,3.761,8.267,7.351,12.621,10.739
	c3.564,2.773,7.223,5.41,10.968,7.92c4.598,3.082,9.329,5.952,14.182,8.616c4.236,2.326,8.536,4.539,12.949,6.53
	c2.855,1.287,5.745,2.503,8.669,3.644c5.847,2.282,11.828,4.269,17.928,5.942c12.631,3.465,25.776,5.554,39.278,6.18
	c2.796,0.13,5.601,0.227,8.427,0.227h321.365c3.037,0,6.053-0.094,9.055-0.244c1.032-0.051,2.055-0.139,3.082-0.209
	c1.95-0.131,3.895-0.279,5.828-0.472c1.248-0.125,2.491-0.27,3.731-0.421c1.666-0.203,3.325-0.427,4.978-0.674
	c1.376-0.206,2.75-0.415,4.115-0.652c1.417-0.246,2.823-0.525,4.23-0.805c1.537-0.306,3.079-0.596,4.603-0.94
	c0.712-0.161,1.413-0.353,2.122-0.522c6.94-1.659,13.745-3.699,20.376-6.142c0.136-0.05,0.274-0.097,0.411-0.148
	c19.499-7.238,37.559-17.756,53.614-30.921C1313.503,711.074,1289.396,710.677,1265.075,708.477z"/>
<path style="fill:#191E38;" d="M925.351,539.29c-4.589,3.568-9.887,6.245-15.657,7.806c-0.374,0.103-0.751,0.197-1.129,0.29
	c-0.806,0.195-1.612,0.381-2.435,0.532c-0.705,0.133-1.422,0.229-2.138,0.326c-0.594,0.08-1.18,0.177-1.782,0.232
	c-1.374,0.131-2.762,0.211-4.172,0.211c-3.078,0-6.083-0.312-8.985-0.905c-11.609-2.376-21.574-9.263-27.984-18.75
	c-1.602-2.372-2.982-4.906-4.111-7.573c-2.256-5.334-3.503-11.198-3.503-17.353v-0.001l0,0c0-10.384,3.58-19.915,9.533-27.493
	c1.105-1.406,2.262-2.768,3.525-4.032c0.092-0.092,0.196-0.171,0.288-0.262c1.685-1.656,3.514-3.161,5.443-4.534
	c0.751-0.535,1.524-1.036,2.309-1.524c1.326-0.825,2.696-1.576,4.11-2.261c1.496-0.723,3.034-1.367,4.617-1.923
	c0.784-0.275,1.569-0.541,2.374-0.773c2.527-0.73,5.134-1.276,7.825-1.55c1.499-0.152,3.02-0.23,4.558-0.23
	c1.291,0,2.563,0.073,3.822,0.193c1.082,0.092,2.143,0.245,3.2,0.413c0.057,0.009,0.116,0.013,0.172,0.022
	c0,0.002,0.001,0.003,0.001,0.005c0.012,0.002,0.024,0.004,0.036,0.005c-0.113-1.195-0.281-2.386-0.38-3.582
	c-0.204-2.466-0.301-4.94-0.449-7.41c-0.139-2.326-0.329-4.647-0.421-6.977c-0.108-2.758-0.116-5.523-0.162-8.286
	c-0.033-2.044-0.117-4.086-0.118-6.133c-0.002-2.883,0.087-5.771,0.146-8.658c0.04-1.92,0.033-3.837,0.098-5.758
	c-0.527-11.677-0.309-23.41,0.632-35.063c-88.669,6.264-158.672,80.131-158.672,170.394l0,0c0,14.746,1.868,29.055,5.38,42.705
	c1.405,5.46,3.073,10.814,4.989,16.049c1.916,5.234,4.082,10.349,6.482,15.329c7.199,14.941,16.508,28.673,27.54,40.811
	c1.839,2.023,3.725,4.002,5.658,5.934c30.922,30.922,73.642,50.048,120.828,50.048h287.678c21.25,0,41.563-3.934,60.325-11.029
	c-3.872-0.353-7.744-0.714-11.627-1.168c-61.992-7.226-126.108-16.074-183.889-40.852
	C1009.958,641.064,952.899,599.199,925.351,539.29z"/>
<path style="fill:#47BEED;" d="M905.234,460.155c2.152,22.708,6.773,45.185,15.101,67.181c1.529,4.038,3.2,7.994,4.985,11.88
	c-4.585,3.58-9.872,6.291-15.626,7.88c5.77-1.561,11.067-4.238,15.657-7.806c10.492-8.156,17.271-20.865,17.271-35.185
	c0-22.154-16.175-40.483-37.351-43.945c0,0,0,0,0,0C905.259,460.159,905.246,460.157,905.234,460.155z"/>
<ellipse transform="matrix(0.8507 -0.5257 0.5257 0.8507 -82.3282 718.4029)" style="fill:#47BEED;" cx="1223.281" cy="504.106" rx="44.583" ry="44.583"/>
<path style="fill:#0AA9DE;" d="M925.321,539.216c-1.785-3.886-3.456-7.842-4.985-11.88c-8.328-21.996-12.948-44.474-15.101-67.181
	c0-0.001-0.001-0.003-0.001-0.005c-0.056-0.009-0.115-0.013-0.172-0.022c-1.056-0.171-2.122-0.311-3.2-0.413
	c-1.259-0.12-2.531-0.193-3.822-0.193c-1.539,0-3.06,0.078-4.558,0.23c-2.691,0.273-5.298,0.819-7.825,1.55
	c-0.804,0.232-1.59,0.497-2.374,0.773c-1.583,0.556-3.121,1.2-4.617,1.923c-1.414,0.685-2.784,1.436-4.11,2.261
	c-0.785,0.488-1.557,0.989-2.309,1.524c-1.93,1.373-3.758,2.878-5.443,4.534c-0.092,0.091-0.197,0.171-0.288,0.262
	c-1.263,1.263-2.42,2.625-3.525,4.032c-5.953,7.578-9.533,17.109-9.533,27.493l0,0c0,6.156,1.247,12.02,3.503,17.354
	c1.129,2.667,2.509,5.202,4.111,7.573c6.41,9.487,16.375,16.375,27.984,18.75c2.903,0.594,5.907,0.905,8.985,0.905
	c1.409,0,2.798-0.08,4.172-0.211c0.601-0.057,1.189-0.151,1.782-0.232c0.716-0.098,1.433-0.194,2.138-0.326
	c0.82-0.154,1.631-0.334,2.435-0.532c0.378-0.094,0.755-0.187,1.129-0.29C915.448,545.508,920.736,542.797,925.321,539.216z"/>
<path style="fill:#47BEED;" d="M1118.737,504.106c0-12.039-18.709-12.059-18.709,0c0,14.511,0,29.022,0,43.533
	c0,15.04,2.689,33.696-4.99,47.305c-13.029,23.091-45.21,26.812-63.301,7.531c-12.336-13.147-10.447-30.384-10.447-46.907
	c0-17.154,0-34.308,0-51.461c0-12.039-18.709-12.059-18.709,0c0,16.419,0,32.838,0,49.258c0,7.206-0.041,14.412,0,21.617
	c0.078,13.625,4.395,26.485,12.892,37.163c20.256,25.457,58.083,28.337,82.792,7.824c12.155-10.09,19.298-25.227,20.358-40.876
	c0.411-6.07,0.113-12.24,0.113-18.317C1118.737,541.886,1118.737,522.995,1118.737,504.106z"/>
<path style="fill:#EC623E;" d="M1060.66,994.123c-32.109,0-58.139,26.03-58.139,58.138c0,32.11,26.03,58.139,58.139,58.139
	c32.109,0,58.139-26.029,58.139-58.139C1118.799,1020.153,1092.769,994.123,1060.66,994.123z"/>
<path style="fill:#FFFFFF;" d="M1300.706,1183.141c-33.848-13.75-77.188,14.248-96.802,62.533
	c-19.615,48.286-8.077,98.576,25.771,112.326c33.848,13.75,77.187-14.248,96.802-62.534
	C1346.092,1247.18,1334.554,1196.89,1300.706,1183.141z"/>
<path style="fill:#FFFFFF;" d="M1209.372,1381.21c-17.338,7.321-25.458,27.312-18.137,44.649
	c7.321,17.338,27.311,25.458,44.649,18.138c17.338-7.321,25.459-27.312,18.138-44.649
	C1246.701,1382.01,1226.71,1373.889,1209.372,1381.21z"/>
</svg>
